<?xml version='1.0' encoding='utf-8'?>
<svg xmlns:xlink="http://www.w3.org/1999/xlink" class="pygal-chart" id="chart-e4e5a559-32f4-47a2-a519-8ac27d0e8fc3" viewBox="0 0 800 600" xmlns="http://www.w3.org/2000/svg"><!--Generated with pygal 2.3.1 (etree) ©Kozea 2012-2016 on 2016-12-06--><!--http://pygal.org--><!--http://github.com/Kozea/pygal--><defs><style type="text/css">#chart-e4e5a559-32f4-47a2-a519-8ac27d0e8fc3{-webkit-user-select:none;-webkit-font-smoothing:antialiased;font-family:Consolas,"Liberation Mono",Menlo,Courier,monospace}#chart-e4e5a559-32f4-47a2-a519-8ac27d0e8fc3 .title{font-family:Consolas,"Liberation Mono",Menlo,Courier,monospace;font-size:16px}#chart-e4e5a559-32f4-47a2-a519-8ac27d0e8fc3 .legends .legend text{font-family:Consolas,"Liberation Mono",Menlo,Courier,monospace;font-size:14px}#chart-e4e5a559-32f4-47a2-a519-8ac27d0e8fc3 .axis text{font-family:Consolas,"Liberation Mono",Menlo,Courier,monospace;font-size:10px}#chart-e4e5a559-32f4-47a2-a519-8ac27d0e8fc3 .axis text.major{font-family:Consolas,"Liberation Mono",Menlo,Courier,monospace;font-size:10px}#chart-e4e5a559-32f4-47a2-a519-8ac27d0e8fc3 .text-overlay text.value{font-family:Consolas,"Liberation Mono",Menlo,Courier,monospace;font-size:16px}#chart-e4e5a559-32f4-47a2-a519-8ac27d0e8fc3 .text-overlay text.label{font-family:Consolas,"Liberation Mono",Menlo,Courier,monospace;font-size:10px}#chart-e4e5a559-32f4-47a2-a519-8ac27d0e8fc3 .tooltip{font-family:Consolas,"Liberation Mono",Menlo,Courier,monospace;font-size:14px}#chart-e4e5a559-32f4-47a2-a519-8ac27d0e8fc3 text.no_data{font-family:Consolas,"Liberation Mono",Menlo,Courier,monospace;font-size:64px}
#chart-e4e5a559-32f4-47a2-a519-8ac27d0e8fc3{background-color:#161201}#chart-e4e5a559-32f4-47a2-a519-8ac27d0e8fc3 path,#chart-e4e5a559-32f4-47a2-a519-8ac27d0e8fc3 line,#chart-e4e5a559-32f4-47a2-a519-8ac27d0e8fc3 rect,#chart-e4e5a559-32f4-47a2-a519-8ac27d0e8fc3 circle{-webkit-transition:250ms ease-in;-moz-transition:250ms ease-in;transition:250ms ease-in}#chart-e4e5a559-32f4-47a2-a519-8ac27d0e8fc3 .graph &gt; .background{fill:#161201}#chart-e4e5a559-32f4-47a2-a519-8ac27d0e8fc3 .plot &gt; .background{fill:#201a01}#chart-e4e5a559-32f4-47a2-a519-8ac27d0e8fc3 .graph{fill:rgba(255,255,255,0.9)}#chart-e4e5a559-32f4-47a2-a519-8ac27d0e8fc3 text.no_data{fill:rgba(255,255,255,0.9)}#chart-e4e5a559-32f4-47a2-a519-8ac27d0e8fc3 .title{fill:rgba(255,255,255,0.9)}#chart-e4e5a559-32f4-47a2-a519-8ac27d0e8fc3 .legends .legend text{fill:rgba(255,255,255,0.9)}#chart-e4e5a559-32f4-47a2-a519-8ac27d0e8fc3 .legends .legend:hover text{fill:rgba(255,255,255,0.9)}#chart-e4e5a559-32f4-47a2-a519-8ac27d0e8fc3 .axis .line{stroke:rgba(255,255,255,0.9)}#chart-e4e5a559-32f4-47a2-a519-8ac27d0e8fc3 .axis .guide.line{stroke:rgba(255,255,255,0.6)}#chart-e4e5a559-32f4-47a2-a519-8ac27d0e8fc3 .axis .major.line{stroke:rgba(255,255,255,0.9)}#chart-e4e5a559-32f4-47a2-a519-8ac27d0e8fc3 .axis text.major{fill:rgba(255,255,255,0.9)}#chart-e4e5a559-32f4-47a2-a519-8ac27d0e8fc3 .axis.y .guides:hover .guide.line,#chart-e4e5a559-32f4-47a2-a519-8ac27d0e8fc3 .line-graph .axis.x .guides:hover .guide.line,#chart-e4e5a559-32f4-47a2-a519-8ac27d0e8fc3 .stackedline-graph .axis.x .guides:hover .guide.line,#chart-e4e5a559-32f4-47a2-a519-8ac27d0e8fc3 .xy-graph .axis.x .guides:hover .guide.line{stroke:rgba(255,255,255,0.9)}#chart-e4e5a559-32f4-47a2-a519-8ac27d0e8fc3 .axis .guides:hover text{fill:rgba(255,255,255,0.9)}#chart-e4e5a559-32f4-47a2-a519-8ac27d0e8fc3 .reactive{fill-opacity:.6;stroke-opacity:.8}#chart-e4e5a559-32f4-47a2-a519-8ac27d0e8fc3 .ci{stroke:rgba(255,255,255,0.9)}#chart-e4e5a559-32f4-47a2-a519-8ac27d0e8fc3 .reactive.active,#chart-e4e5a559-32f4-47a2-a519-8ac27d0e8fc3 .active .reactive{fill-opacity:.9;stroke-opacity:.9;stroke-width:4}#chart-e4e5a559-32f4-47a2-a519-8ac27d0e8fc3 .ci .reactive.active{stroke-width:1.5}#chart-e4e5a559-32f4-47a2-a519-8ac27d0e8fc3 .series text{fill:rgba(255,255,255,0.9)}#chart-e4e5a559-32f4-47a2-a519-8ac27d0e8fc3 .tooltip rect{fill:#201a01;stroke:rgba(255,255,255,0.9);-webkit-transition:opacity 250ms ease-in;-moz-transition:opacity 250ms ease-in;transition:opacity 250ms ease-in}#chart-e4e5a559-32f4-47a2-a519-8ac27d0e8fc3 .tooltip .label{fill:rgba(255,255,255,0.9)}#chart-e4e5a559-32f4-47a2-a519-8ac27d0e8fc3 .tooltip .label{fill:rgba(255,255,255,0.9)}#chart-e4e5a559-32f4-47a2-a519-8ac27d0e8fc3 .tooltip .legend{font-size:.8em;fill:rgba(255,255,255,0.6)}#chart-e4e5a559-32f4-47a2-a519-8ac27d0e8fc3 .tooltip .x_label{font-size:.6em;fill:rgba(255,255,255,0.9)}#chart-e4e5a559-32f4-47a2-a519-8ac27d0e8fc3 .tooltip .xlink{font-size:.5em;text-decoration:underline}#chart-e4e5a559-32f4-47a2-a519-8ac27d0e8fc3 .tooltip .value{font-size:1.5em}#chart-e4e5a559-32f4-47a2-a519-8ac27d0e8fc3 .bound{font-size:.5em}#chart-e4e5a559-32f4-47a2-a519-8ac27d0e8fc3 .max-value{font-size:.75em;fill:rgba(255,255,255,0.6)}#chart-e4e5a559-32f4-47a2-a519-8ac27d0e8fc3 .map-element{fill:#201a01;stroke:rgba(255,255,255,0.6) !important}#chart-e4e5a559-32f4-47a2-a519-8ac27d0e8fc3 .map-element .reactive{fill-opacity:inherit;stroke-opacity:inherit}#chart-e4e5a559-32f4-47a2-a519-8ac27d0e8fc3 .color-0,#chart-e4e5a559-32f4-47a2-a519-8ac27d0e8fc3 .color-0 a:visited{stroke:#adde09;fill:#adde09}#chart-e4e5a559-32f4-47a2-a519-8ac27d0e8fc3 .color-1,#chart-e4e5a559-32f4-47a2-a519-8ac27d0e8fc3 .color-1 a:visited{stroke:#6e8c06;fill:#6e8c06}#chart-e4e5a559-32f4-47a2-a519-8ac27d0e8fc3 .text-overlay .color-0 text{fill:black}#chart-e4e5a559-32f4-47a2-a519-8ac27d0e8fc3 .text-overlay .color-1 text{fill:black}
#chart-e4e5a559-32f4-47a2-a519-8ac27d0e8fc3 text.no_data{text-anchor:middle}#chart-e4e5a559-32f4-47a2-a519-8ac27d0e8fc3 .guide.line{fill:none}#chart-e4e5a559-32f4-47a2-a519-8ac27d0e8fc3 .centered{text-anchor:middle}#chart-e4e5a559-32f4-47a2-a519-8ac27d0e8fc3 .title{text-anchor:middle}#chart-e4e5a559-32f4-47a2-a519-8ac27d0e8fc3 .legends .legend text{fill-opacity:1}#chart-e4e5a559-32f4-47a2-a519-8ac27d0e8fc3 .axis.x text{text-anchor:middle}#chart-e4e5a559-32f4-47a2-a519-8ac27d0e8fc3 .axis.x:not(.web) text[transform]{text-anchor:start}#chart-e4e5a559-32f4-47a2-a519-8ac27d0e8fc3 .axis.x:not(.web) text[transform].backwards{text-anchor:end}#chart-e4e5a559-32f4-47a2-a519-8ac27d0e8fc3 .axis.y text{text-anchor:end}#chart-e4e5a559-32f4-47a2-a519-8ac27d0e8fc3 .axis.y text[transform].backwards{text-anchor:start}#chart-e4e5a559-32f4-47a2-a519-8ac27d0e8fc3 .axis.y2 text{text-anchor:start}#chart-e4e5a559-32f4-47a2-a519-8ac27d0e8fc3 .axis.y2 text[transform].backwards{text-anchor:end}#chart-e4e5a559-32f4-47a2-a519-8ac27d0e8fc3 .axis .guide.line{stroke-dasharray:4,4}#chart-e4e5a559-32f4-47a2-a519-8ac27d0e8fc3 .axis .major.guide.line{stroke-dasharray:6,6}#chart-e4e5a559-32f4-47a2-a519-8ac27d0e8fc3 .horizontal .axis.y .guide.line,#chart-e4e5a559-32f4-47a2-a519-8ac27d0e8fc3 .horizontal .axis.y2 .guide.line,#chart-e4e5a559-32f4-47a2-a519-8ac27d0e8fc3 .vertical .axis.x .guide.line{opacity:0}#chart-e4e5a559-32f4-47a2-a519-8ac27d0e8fc3 .horizontal .axis.always_show .guide.line,#chart-e4e5a559-32f4-47a2-a519-8ac27d0e8fc3 .vertical .axis.always_show .guide.line{opacity:1 !important}#chart-e4e5a559-32f4-47a2-a519-8ac27d0e8fc3 .axis.y .guides:hover .guide.line,#chart-e4e5a559-32f4-47a2-a519-8ac27d0e8fc3 .axis.y2 .guides:hover .guide.line,#chart-e4e5a559-32f4-47a2-a519-8ac27d0e8fc3 .axis.x .guides:hover .guide.line{opacity:1}#chart-e4e5a559-32f4-47a2-a519-8ac27d0e8fc3 .axis .guides:hover text{opacity:1}#chart-e4e5a559-32f4-47a2-a519-8ac27d0e8fc3 .nofill{fill:none}#chart-e4e5a559-32f4-47a2-a519-8ac27d0e8fc3 .subtle-fill{fill-opacity:.2}#chart-e4e5a559-32f4-47a2-a519-8ac27d0e8fc3 .dot{stroke-width:1px;fill-opacity:1}#chart-e4e5a559-32f4-47a2-a519-8ac27d0e8fc3 .dot.active{stroke-width:5px}#chart-e4e5a559-32f4-47a2-a519-8ac27d0e8fc3 .dot.negative{fill:transparent}#chart-e4e5a559-32f4-47a2-a519-8ac27d0e8fc3 text,#chart-e4e5a559-32f4-47a2-a519-8ac27d0e8fc3 tspan{stroke:none !important}#chart-e4e5a559-32f4-47a2-a519-8ac27d0e8fc3 .series text.active{opacity:1}#chart-e4e5a559-32f4-47a2-a519-8ac27d0e8fc3 .tooltip rect{fill-opacity:.95;stroke-width:.5}#chart-e4e5a559-32f4-47a2-a519-8ac27d0e8fc3 .tooltip text{fill-opacity:1}#chart-e4e5a559-32f4-47a2-a519-8ac27d0e8fc3 .showable{visibility:hidden}#chart-e4e5a559-32f4-47a2-a519-8ac27d0e8fc3 .showable.shown{visibility:visible}#chart-e4e5a559-32f4-47a2-a519-8ac27d0e8fc3 .gauge-background{fill:rgba(229,229,229,1);stroke:none}#chart-e4e5a559-32f4-47a2-a519-8ac27d0e8fc3 .bg-lines{stroke:#161201;stroke-width:2px}</style><script type="text/javascript">window.pygal = window.pygal || {};window.pygal.config = window.pygal.config || {};window.pygal.config['e4e5a559-32f4-47a2-a519-8ac27d0e8fc3'] = {"box_mode": "extremes", "interpolate": "cubic", "print_values": false, "inverse_y_axis": false, "stroke": true, "logarithmic": false, "x_label_rotation": 0, "show_minor_x_labels": true, "show_y_labels": true, "no_data_text": "No data", "css": ["file://style.css", "file://graph.css"], "js": ["//kozea.github.io/pygal.js/2.0.x/pygal-tooltips.min.js"], "missing_value_fill_truncation": "x", "truncate_legend": null, "y_labels_major": null, "secondary_range": [0, 250, 50], "stack_from_top": false, "range": null, "spacing": 10, "dynamic_print_values": false, "height": 600, "print_labels": false, "strict": false, "margin_left": null, "inner_radius": 0, "stroke_style": null, "y_label_rotation": 0, "margin_top": null, "disable_xml_declaration": false, "margin": 20, "show_x_guides": false, "legends": ["Injured", "Death"], "no_prefix": false, "show_x_labels": true, "force_uri_protocol": "https", "order_min": null, "pretty_print": false, "y_labels": [0, 100, 200, 300, 400, 500], "print_zeroes": true, "title": "Landslide", "dots_size": 2.5, "x_title": null, "margin_bottom": null, "min_scale": 4, "style": {"title_font_size": 16, "stroke_opacity_hover": ".9", "value_background": "rgba(229, 229, 229, 1)", "major_label_font_size": 10, "legend_font_size": 14, "no_data_font_size": 64, "value_colors": [], "major_guide_stroke_dasharray": "6,6", "ci_colors": [], "plot_background": "#201a01", "legend_font_family": "Consolas, \"Liberation Mono\", Menlo, Courier, monospace", "foreground_subtle": "rgba(255, 255, 255, 0.6)", "opacity": ".6", "value_label_font_size": 10, "opacity_hover": ".9", "colors": ["#adde09", "#6e8c06", "#4a5e04", "#fcd202", "#C1E34D", "#fee980"], "stroke_opacity": ".8", "tooltip_font_family": "Consolas, \"Liberation Mono\", Menlo, Courier, monospace", "label_font_size": 10, "value_font_family": "Consolas, \"Liberation Mono\", Menlo, Courier, monospace", "guide_stroke_dasharray": "4,4", "tooltip_font_size": 14, "foreground": "rgba(255, 255, 255, 0.9)", "value_label_font_family": "Consolas, \"Liberation Mono\", Menlo, Courier, monospace", "title_font_family": "Consolas, \"Liberation Mono\", Menlo, Courier, monospace", "label_font_family": "Consolas, \"Liberation Mono\", Menlo, Courier, monospace", "transition": "250ms ease-in", "font_family": "Consolas, \"Liberation Mono\", Menlo, Courier, monospace", "major_label_font_family": "Consolas, \"Liberation Mono\", Menlo, Courier, monospace", "value_font_size": 16, "no_data_font_family": "Consolas, \"Liberation Mono\", Menlo, Courier, monospace", "foreground_strong": "rgba(255, 255, 255, 0.9)", "background": "#161201"}, "x_labels_major_count": null, "x_labels": [2531, 2543, 2544, 2547, 2549, 2550, 2551, 2552], "classes": ["pygal-chart"], "tooltip_fancy_mode": true, "interpolation_precision": 250, "y_title": null, "defs": [], "zero": 0, "show_legend": true, "print_values_position": "center", "legend_at_bottom_columns": null, "tooltip_border_radius": 0, "show_dots": true, "y_labels_major_every": null, "fill": true, "include_x_axis": false, "half_pie": false, "width": 800, "truncate_label": null, "x_labels_major_every": null, "xrange": null, "y_labels_major_count": null, "allow_interruptions": false, "explicit_size": false, "show_only_major_dots": false, "formatter": null, "legend_box_size": 12, "interpolation_parameters": {}, "show_y_guides": true, "x_labels_major": null, "max_scale": 16, "legend_at_bottom": false, "rounded_bars": null, "margin_right": null, "show_minor_y_labels": true}</script><script type="text/javascript" xlink:href="https://kozea.github.io/pygal.js/2.0.x/pygal-tooltips.min.js" /></defs><title>Landslide</title><g class="graph line-graph vertical"><rect class="background" height="600" width="800" x="0" y="0" /><g class="plot" transform="translate(128, 46)"><rect class="background" height="514" width="559.2" x="0" y="0" /><g class="axis y"><g class="guides"><path class="axis major line" d="M0.000000 459.585320 h559.200000" /><text class="major" x="-5" y="463.08532009">0</text><title>0</title></g><g class="guides"><path class="guide line" d="M0.000000 369.645179 h559.200000" /><text class="" x="-5" y="373.145179149">100</text><title>100</title></g><g class="guides"><path class="guide line" d="M0.000000 279.705038 h559.200000" /><text class="" x="-5" y="283.205038208">200</text><title>200</title></g><g class="guides"><path class="guide line" d="M0.000000 189.764897 h559.200000" /><text class="" x="-5" y="193.264897267">300</text><title>300</title></g><g class="guides"><path class="guide line" d="M0.000000 99.824756 h559.200000" /><text class="" x="-5" y="103.324756326">400</text><title>400</title></g><g class="guides"><path class="major guide line" d="M0.000000 9.884615 h559.200000" /><text class="major" x="-5" y="13.3846153846">500</text><title>500</title></g></g><g class="axis y2"><g class="guides"><text class="major" x="564.2" y="463.08532009">0</text></g><g class="guides"><text class="" x="564.2" y="373.145179149">50</text></g><g class="guides"><text class="" x="564.2" y="283.205038208">100</text></g><g class="guides"><text class="" x="564.2" y="193.264897267">150</text></g><g class="guides"><text class="" x="564.2" y="103.324756326">200</text></g><g class="guides"><text class="major" x="564.2" y="13.3846153846">250</text></g></g><g class="axis x"><g class="guides"><path class="line" d="M10.753846 0.000000 v514.000000" /><text class="" x="10.753846153846155" y="529.0">2531</text></g><g class="guides"><path class="guide line" d="M87.567033 0.000000 v514.000000" /><text class="" x="87.56703296703296" y="529.0">2543</text></g><g class="guides"><path class="guide line" d="M164.380220 0.000000 v514.000000" /><text class="" x="164.3802197802198" y="529.0">2544</text></g><g class="guides"><path class="guide line" d="M241.193407 0.000000 v514.000000" /><text class="" x="241.1934065934066" y="529.0">2547</text></g><g class="guides"><path class="guide line" d="M318.006593 0.000000 v514.000000" /><text class="" x="318.0065934065934" y="529.0">2549</text></g><g class="guides"><path class="guide line" d="M394.819780 0.000000 v514.000000" /><text class="" x="394.8197802197802" y="529.0">2550</text></g><g class="guides"><path class="guide line" d="M471.632967 0.000000 v514.000000" /><text class="" x="471.63296703296703" y="529.0">2551</text></g><g class="guides"><path class="line" d="M548.446154 0.000000 v514.000000" /><text class="" x="548.4461538461538" y="529.0">2552</text></g></g><g class="series serie-0 color-0"><path class="line reactive" d="M10.753846 459.585320 L10.753846 459.585320 11.061099 459.591882 11.368352 459.598444 11.675604 459.605005 11.982857 459.611563 12.290110 459.618119 12.597363 459.624672 12.904615 459.631221 13.211868 459.637766 13.519121 459.644306 13.826374 459.650840 14.133626 459.657367 14.440879 459.663888 14.748132 459.670401 15.055385 459.676906 15.362637 459.683402 15.669890 459.689889 15.977143 459.696366 16.284396 459.702832 16.591648 459.709286 16.898901 459.715729 17.206154 459.722159 17.513407 459.728576 17.820659 459.734979 18.127912 459.741367 18.435165 459.747741 18.742418 459.754098 19.049670 459.760439 19.356923 459.766764 19.664176 459.773070 19.971429 459.779359 20.278681 459.785628 20.585934 459.791878 20.893187 459.798108 21.200440 459.804316 21.507692 459.810504 21.814945 459.816669 22.122198 459.822812 22.429451 459.828932 22.736703 459.835027 23.043956 459.841098 23.351209 459.847144 23.658462 459.853164 23.965714 459.859157 24.272967 459.865124 24.580220 459.871062 24.887473 459.876972 25.194725 459.882854 25.501978 459.888706 25.809231 459.894527 26.116484 459.900318 26.423736 459.906077 26.730989 459.911804 27.038242 459.917498 27.345495 459.923159 27.652747 459.928785 27.960000 459.934378 28.267253 459.939935 28.574505 459.945455 28.881758 459.950940 29.189011 459.956387 29.496264 459.961797 29.803516 459.967168 30.110769 459.972500 30.418022 459.977792 30.725275 459.983044 31.032527 459.988255 31.339780 459.993424 31.647033 459.998551 31.954286 460.003636 32.261538 460.008677 32.568791 460.013674 32.876044 460.018626 33.183297 460.023532 33.490549 460.028393 33.797802 460.033207 34.105055 460.037974 34.412308 460.042693 34.719560 460.047363 35.026813 460.051985 35.334066 460.056556 35.641319 460.061078 35.948571 460.065548 36.255824 460.069966 36.563077 460.074332 36.870330 460.078646 37.177582 460.082905 37.484835 460.087111 37.792088 460.091262 38.099341 460.095357 38.406593 460.099396 38.713846 460.103379 39.021099 460.107304 39.328352 460.111171 39.635604 460.114980 39.942857 460.118729 40.250110 460.122419 40.557363 460.126048 40.864615 460.129616 41.171868 460.133122 41.479121 460.136566 41.786374 460.139947 42.093626 460.143264 42.400879 460.146517 42.708132 460.149705 43.015385 460.152827 43.322637 460.155884 43.629890 460.158874 43.937143 460.161796 44.244396 460.164650 44.551648 460.167435 44.858901 460.170152 45.166154 460.172798 45.473407 460.175374 45.780659 460.177878 46.087912 460.180311 46.395165 460.182671 46.702418 460.184958 47.009670 460.187172 47.316923 460.189311 47.624176 460.191375 47.931429 460.193364 48.238681 460.195276 48.545934 460.197112 48.853187 460.198870 49.160440 460.200550 49.467692 460.202151 49.774945 460.203672 50.082198 460.205114 50.389451 460.206475 50.696703 460.207755 51.003956 460.208953 51.311209 460.210068 51.618462 460.211101 51.925714 460.212049 52.232967 460.212913 52.540220 460.213692 52.847473 460.214386 53.154725 460.214993 53.461978 460.215513 53.769231 460.215945 54.076484 460.216289 54.383736 460.216545 54.690989 460.216711 54.998242 460.216787 55.305495 460.216772 55.612747 460.216666 55.920000 460.216468 56.227253 460.216177 56.534505 460.215793 56.841758 460.215315 57.149011 460.214743 57.456264 460.214075 57.763516 460.213312 58.070769 460.212452 58.378022 460.211496 58.685275 460.210441 58.992527 460.209289 59.299780 460.208037 59.607033 460.206686 59.914286 460.205235 60.221538 460.203683 60.528791 460.202030 60.836044 460.200274 61.143297 460.198416 61.450549 460.196455 61.757802 460.194389 62.065055 460.192219 62.372308 460.189944 62.679560 460.187563 62.986813 460.185075 63.294066 460.182481 63.601319 460.179778 63.908571 460.176968 64.215824 460.174048 64.523077 460.171019 64.830330 460.167879 65.137582 460.164629 65.444835 460.161267 65.752088 460.157792 66.059341 460.154206 66.366593 460.150505 66.673846 460.146691 66.981099 460.142762 67.288352 460.138718 67.595604 460.134558 67.902857 460.130281 68.210110 460.125887 68.517363 460.121375 68.824615 460.116745 69.131868 460.111996 69.439121 460.107127 69.746374 460.102138 70.053626 460.097028 70.360879 460.091796 70.668132 460.086442 70.975385 460.080965 71.282637 460.075365 71.589890 460.069640 71.897143 460.063791 72.204396 460.057816 72.511648 460.051716 72.818901 460.045489 73.126154 460.039134 73.433407 460.032652 73.740659 460.026041 74.047912 460.019301 74.355165 460.012431 74.662418 460.005431 74.969670 459.998300 75.276923 459.991037 75.584176 459.983642 75.891429 459.976114 76.198681 459.968452 76.505934 459.960656 76.813187 459.952725 77.120440 459.944659 77.427692 459.936457 77.734945 459.928118 78.042198 459.919642 78.349451 459.911028 78.656703 459.902275 78.963956 459.893383 79.271209 459.884351 79.578462 459.875178 79.885714 459.865865 80.192967 459.856409 80.500220 459.846812 80.807473 459.837071 81.114725 459.827187 81.421978 459.817158 81.729231 459.806985 82.036484 459.796666 82.343736 459.786201 82.650989 459.775589 82.958242 459.764829 83.265495 459.753922 83.572747 459.742866 83.880000 459.731660 84.187253 459.720305 84.494505 459.708799 84.801758 459.697142 85.109011 459.685333 85.416264 459.673372 85.723516 459.661257 86.030769 459.648989 86.338022 459.636566 86.645275 459.623989 86.952527 459.611256 87.259780 459.598366 87.567033 459.585320 87.874286 459.572111 88.181538 459.558709 88.488791 459.545081 88.796044 459.531193 89.103297 459.517008 89.410549 459.502494 89.717802 459.487615 90.025055 459.472337 90.332308 459.456626 90.639560 459.440447 90.946813 459.423765 91.254066 459.406547 91.561319 459.388757 91.868571 459.370361 92.175824 459.351324 92.483077 459.331613 92.790330 459.311192 93.097582 459.290028 93.404835 459.268085 93.712088 459.245329 94.019341 459.221725 94.326593 459.197240 94.633846 459.171838 94.941099 459.145486 95.248352 459.118148 95.555604 459.089790 95.862857 459.060378 96.170110 459.029876 96.477363 458.998252 96.784615 458.965470 97.091868 458.931495 97.399121 458.896293 97.706374 458.859830 98.013626 458.822072 98.320879 458.782983 98.628132 458.742529 98.935385 458.700675 99.242637 458.657388 99.549890 458.612633 99.857143 458.566375 100.164396 458.518579 100.471648 458.469212 100.778901 458.418238 101.086154 458.365624 101.393407 458.311334 101.700659 458.255334 102.007912 458.197590 102.315165 458.138068 102.622418 458.076732 102.929670 458.013548 103.236923 457.948482 103.544176 457.881500 103.851429 457.812566 104.158681 457.741646 104.465934 457.668706 104.773187 457.593711 105.080440 457.516627 105.387692 457.437420 105.694945 457.356054 106.002198 457.272495 106.309451 457.186709 106.616703 457.098662 106.923956 457.008318 107.231209 456.915644 107.538462 456.820604 107.845714 456.723165 108.152967 456.623291 108.460220 456.520949 108.767473 456.416103 109.074725 456.308720 109.381978 456.198765 109.689231 456.086203 109.996484 455.971000 110.303736 455.853121 110.610989 455.732532 110.918242 455.609198 111.225495 455.483086 111.532747 455.354159 111.840000 455.222385 112.147253 455.087727 112.454505 454.950153 112.761758 454.809627 113.069011 454.666115 113.376264 454.519583 113.683516 454.369995 113.990769 454.217317 114.298022 454.061516 114.605275 453.902556 114.912527 453.740403 115.219780 453.575022 115.527033 453.406379 115.834286 453.234440 116.141538 453.059169 116.448791 452.880533 116.756044 452.698497 117.063297 452.513027 117.370549 452.324087 117.677802 452.131644 117.985055 451.935662 118.292308 451.736108 118.599560 451.532947 118.906813 451.326145 119.214066 451.115667 119.521319 450.901478 119.828571 450.683544 120.135824 450.461830 120.443077 450.236303 120.750330 450.006927 121.057582 449.773668 121.364835 449.536491 121.672088 449.295363 121.979341 449.050248 122.286593 448.801112 122.593846 448.547920 122.901099 448.290639 123.208352 448.029233 123.515604 447.763668 123.822857 447.493910 124.130110 447.219924 124.437363 446.941675 124.744615 446.659129 125.051868 446.372252 125.359121 446.081009 125.666374 445.785366 125.973626 445.485287 126.280879 445.180740 126.588132 444.871688 126.895385 444.558098 127.202637 444.239935 127.509890 443.917164 127.817143 443.589752 128.124396 443.257663 128.431648 442.920864 128.738901 442.579319 129.046154 442.232994 129.353407 441.881855 129.660659 441.525867 129.967912 441.164995 130.275165 440.799206 130.582418 440.428464 130.889670 440.052736 131.196923 439.671986 131.504176 439.286180 131.811429 438.895284 132.118681 438.499263 132.425934 438.098083 132.733187 437.691709 133.040440 437.280107 133.347692 436.863241 133.654945 436.441079 133.962198 436.013585 134.269451 435.580724 134.576703 435.142463 134.883956 434.698766 135.191209 434.249600 135.498462 433.794929 135.805714 433.334719 136.112967 432.868937 136.420220 432.397546 136.727473 431.920513 137.034725 431.437804 137.341978 430.949383 137.649231 430.455216 137.956484 429.955269 138.263736 429.449508 138.570989 428.937897 138.878242 428.420403 139.185495 427.896990 139.492747 427.367624 139.800000 426.832272 140.107253 426.290897 140.414505 425.743467 140.721758 425.189945 141.029011 424.630299 141.336264 424.064493 141.643516 423.492492 141.950769 422.914263 142.258022 422.329771 142.565275 421.738981 142.872527 421.141859 143.179780 420.538370 143.487033 419.928480 143.794286 419.312155 144.101538 418.689359 144.408791 418.060059 144.716044 417.424219 145.023297 416.781806 145.330549 416.132785 145.637802 415.477121 145.945055 414.814780 146.252308 414.145727 146.559560 413.469928 146.866813 412.787349 147.174066 412.097955 147.481319 411.401710 147.788571 410.698582 148.095824 409.988536 148.403077 409.271536 148.710330 408.547548 149.017582 407.816539 149.324835 407.078473 149.632088 406.333315 149.939341 405.581033 150.246593 404.821590 150.553846 404.054953 150.861099 403.281086 151.168352 402.499956 151.475604 401.711528 151.782857 400.915768 152.090110 400.112640 152.397363 399.302111 152.704615 398.484146 153.011868 397.658711 153.319121 396.825770 153.626374 395.985290 153.933626 395.137236 154.240879 394.281573 154.548132 393.418267 154.855385 392.547284 155.162637 391.668589 155.469890 390.782148 155.777143 389.887925 156.084396 388.985887 156.391648 388.075999 156.698901 387.158227 157.006154 386.232535 157.313407 385.298890 157.620659 384.357258 157.927912 383.407602 158.235165 382.449890 158.542418 381.484087 158.849670 380.510157 159.156923 379.528067 159.464176 378.537782 159.771429 377.539268 160.078681 376.532490 160.385934 375.517413 160.693187 374.494003 161.000440 373.462227 161.307692 372.422048 161.614945 371.373432 161.922198 370.316346 162.229451 369.250755 162.536703 368.176624 162.843956 367.093918 163.151209 366.002603 163.458462 364.902645 163.765714 363.794010 164.072967 362.676661 164.380220 361.550566 164.687473 360.415715 164.994725 359.272199 165.301978 358.120135 165.609231 356.959639 165.916484 355.790827 166.223736 354.613817 166.530989 353.428725 166.838242 352.235666 167.145495 351.034759 167.452747 349.826118 167.760000 348.609862 168.067253 347.386105 168.374505 346.154966 168.681758 344.916559 168.989011 343.671003 169.296264 342.418412 169.603516 341.158905 169.910769 339.892596 170.218022 338.619604 170.525275 337.340044 170.832527 336.054032 171.139780 334.761686 171.447033 333.463122 171.754286 332.158456 172.061538 330.847805 172.368791 329.531286 172.676044 328.209014 172.983297 326.881106 173.290549 325.547680 173.597802 324.208851 173.905055 322.864735 174.212308 321.515451 174.519560 320.161113 174.826813 318.801838 175.134066 317.437743 175.441319 316.068945 175.748571 314.695560 176.055824 313.317704 176.363077 311.935494 176.670330 310.549047 176.977582 309.158478 177.284835 307.763905 177.592088 306.365444 177.899341 304.963212 178.206593 303.557325 178.513846 302.147899 178.821099 300.735051 179.128352 299.318897 179.435604 297.899555 179.742857 296.477140 180.050110 295.051769 180.357363 293.623559 180.664615 292.192626 180.971868 290.759086 181.279121 289.323057 181.586374 287.884654 181.893626 286.443994 182.200879 285.001194 182.508132 283.556369 182.815385 282.109638 183.122637 280.661116 183.429890 279.210919 183.737143 277.759164 184.044396 276.305968 184.351648 274.851447 184.658901 273.395718 184.966154 271.938897 185.273407 270.481101 185.580659 269.022446 185.887912 267.563048 186.195165 266.103025 186.502418 264.642493 186.809670 263.181567 187.116923 261.720366 187.424176 260.259005 187.731429 258.797600 188.038681 257.336269 188.345934 255.875127 188.653187 254.414292 188.960440 252.953879 189.267692 251.494006 189.574945 250.034789 189.882198 248.576344 190.189451 247.118787 190.496703 245.662236 190.803956 244.206807 191.111209 242.752616 191.418462 241.299780 191.725714 239.848415 192.032967 238.398638 192.340220 236.950566 192.647473 235.504314 192.954725 234.060000 193.261978 232.617740 193.569231 231.177650 193.876484 229.739847 194.183736 228.304447 194.490989 226.871567 194.798242 225.441324 195.105495 224.013834 195.412747 222.589213 195.720000 221.167578 196.027253 219.749045 196.334505 218.333731 196.641758 216.921753 196.949011 215.513227 197.256264 214.108269 197.563516 212.706997 197.870769 211.309525 198.178022 209.915972 198.485275 208.526454 198.792527 207.141086 199.099780 205.759986 199.407033 204.383270 199.714286 203.011054 200.021538 201.643456 200.328791 200.280591 200.636044 198.922576 200.943297 197.569528 201.250549 196.221563 201.557802 194.878797 201.865055 193.541348 202.172308 192.209331 202.479560 190.882863 202.786813 189.562061 203.094066 188.247041 203.401319 186.937919 203.708571 185.634813 204.015824 184.337839 204.323077 183.047112 204.630330 181.762751 204.937582 180.484870 205.244835 179.213587 205.552088 177.949018 205.859341 176.691280 206.166593 175.440490 206.473846 174.196763 206.781099 172.960216 207.088352 171.730966 207.395604 170.509129 207.702857 169.294822 208.010110 168.088161 208.317363 166.889263 208.624615 165.698244 208.931868 164.515221 209.239121 163.340310 209.546374 162.173629 209.853626 161.015292 210.160879 159.865417 210.468132 158.724121 210.775385 157.591519 211.082637 156.467729 211.389890 155.352866 211.697143 154.247048 212.004396 153.150391 212.311648 152.063011 212.618901 150.985025 212.926154 149.916549 213.233407 148.857700 213.540659 147.808595 213.847912 146.769349 214.155165 145.740080 214.462418 144.720904 214.769670 143.711938 215.076923 142.713297 215.384176 141.725098 215.691429 140.747459 215.998681 139.780495 216.305934 138.824323 216.613187 137.879060 216.920440 136.944821 217.227692 136.021724 217.534945 135.109885 217.842198 134.209421 218.149451 133.320447 218.456703 132.443081 218.763956 131.577439 219.071209 130.723638 219.378462 129.881793 219.685714 129.052023 219.992967 128.234442 220.300220 127.429168 220.607473 126.636317 220.914725 125.856005 221.221978 125.088350 221.529231 124.333467 221.836484 123.591473 222.143736 122.862485 222.450989 122.146619 222.758242 121.443992 223.065495 120.754720 223.372747 120.078919 223.680000 119.416707 223.987253 118.768199 224.294505 118.133512 224.601758 117.512763 224.909011 116.906069 225.216264 116.313545 225.523516 115.735308 225.830769 115.171475 226.138022 114.622162 226.445275 114.087486 226.752527 113.567563 227.059780 113.062509 227.367033 112.572442 227.674286 112.097478 227.981538 111.637733 228.288791 111.193324 228.596044 110.764367 228.903297 110.350979 229.210549 109.953276 229.517802 109.571375 229.825055 109.205393 230.132308 108.855445 230.439560 108.521648 230.746813 108.204119 231.054066 107.902975 231.361319 107.618332 231.668571 107.350305 231.975824 107.099013 232.283077 106.864571 232.590330 106.647096 232.897582 106.446704 233.204835 106.263513 233.512088 106.097637 233.819341 105.949195 234.126593 105.818302 234.433846 105.705075 234.741099 105.609630 235.048352 105.532084 235.355604 105.472554 235.662857 105.431155 235.970110 105.408006 236.277363 105.403221 236.584615 105.416917 236.891868 105.449212 237.199121 105.500221 237.506374 105.570061 237.813626 105.658849 238.120879 105.766700 238.428132 105.893732 238.735385 106.040061 239.042637 106.205804 239.349890 106.391077 239.657143 106.595996 239.964396 106.820679 240.271648 107.065241 240.578901 107.329799 240.886154 107.614469 241.193407 107.919369 241.500659 108.244572 241.807912 108.589981 242.115165 108.955456 242.422418 109.340860 242.729670 109.746051 243.036923 110.170892 243.344176 110.615242 243.651429 111.078962 243.958681 111.561913 244.265934 112.063955 244.573187 112.584949 244.880440 113.124756 245.187692 113.683237 245.494945 114.260251 245.802198 114.855660 246.109451 115.469325 246.416703 116.101105 246.723956 116.750862 247.031209 117.418457 247.338462 118.103749 247.645714 118.806600 247.952967 119.526870 248.260220 120.264419 248.567473 121.019110 248.874725 121.790801 249.181978 122.579354 249.489231 123.384630 249.796484 124.206489 250.103736 125.044791 250.410989 125.899398 250.718242 126.770170 251.025495 127.656967 251.332747 128.559651 251.640000 129.478082 251.947253 130.412121 252.254505 131.361627 252.561758 132.326463 252.869011 133.306488 253.176264 134.301564 253.483516 135.311550 253.790769 136.336308 254.098022 137.375698 254.405275 138.429580 254.712527 139.497816 255.019780 140.580267 255.327033 141.676792 255.634286 142.787252 255.941538 143.911508 256.248791 145.049421 256.556044 146.200852 256.863297 147.365660 257.170549 148.543707 257.477802 149.734853 257.785055 150.938959 258.092308 152.155886 258.399560 153.385494 258.706813 154.627644 259.014066 155.882196 259.321319 157.149012 259.628571 158.427951 259.935824 159.718874 260.243077 161.021643 260.550330 162.336118 260.857582 163.662159 261.164835 164.999627 261.472088 166.348382 261.779341 167.708286 262.086593 169.079199 262.393846 170.460982 262.701099 171.853495 263.008352 173.256598 263.315604 174.670154 263.622857 176.094021 263.930110 177.528062 264.237363 178.972136 264.544615 180.426104 264.851868 181.889827 265.159121 183.363165 265.466374 184.845979 265.773626 186.338131 266.080879 187.839479 266.388132 189.349886 266.695385 190.869211 267.002637 192.397316 267.309890 193.934060 267.617143 195.479306 267.924396 197.032912 268.231648 198.594741 268.538901 200.164652 268.846154 201.742506 269.153407 203.328164 269.460659 204.921487 269.767912 206.522335 270.075165 208.130568 270.382418 209.746048 270.689670 211.368635 270.996923 212.998190 271.304176 214.634574 271.611429 216.277646 271.918681 217.927268 272.225934 219.583301 272.533187 221.245604 272.840440 222.914039 273.147692 224.588466 273.454945 226.268747 273.762198 227.954740 274.069451 229.646308 274.376703 231.343311 274.683956 233.045610 274.991209 234.753064 275.298462 236.465536 275.605714 238.182885 275.912967 239.904972 276.220220 241.631658 276.527473 243.362803 276.834725 245.098268 277.141978 246.837914 277.449231 248.581601 277.756484 250.329190 278.063736 252.080542 278.370989 253.835517 278.678242 255.593977 278.985495 257.355780 279.292747 259.120789 279.600000 260.888864 279.907253 262.659865 280.214505 264.433654 280.521758 266.210090 280.829011 267.989035 281.136264 269.770349 281.443516 271.553893 281.750769 273.339527 282.058022 275.127112 282.365275 276.916509 282.672527 278.707578 282.979780 280.500180 283.287033 282.294176 283.594286 284.089426 283.901538 285.885791 284.208791 287.683132 284.516044 289.481309 284.823297 291.280183 285.130549 293.079614 285.437802 294.879463 285.745055 296.679592 286.052308 298.479859 286.359560 300.280127 286.666813 302.080256 286.974066 303.880106 287.281319 305.679538 287.588571 307.478413 287.895824 309.276591 288.203077 311.073934 288.510330 312.870301 288.817582 314.665553 289.124835 316.459551 289.432088 318.252156 289.739341 320.043228 290.046593 321.832627 290.353846 323.620216 290.661099 325.405853 290.968352 327.189401 291.275604 328.970719 291.582857 330.749668 291.890110 332.526108 292.197363 334.299902 292.504615 336.070908 292.811868 337.838988 293.119121 339.604002 293.426374 341.365812 293.733626 343.124277 294.040879 344.879258 294.348132 346.630616 294.655385 348.378212 294.962637 350.121906 295.269890 351.861559 295.577143 353.597032 295.884396 355.328184 296.191648 357.054878 296.498901 358.776973 296.806154 360.494330 297.113407 362.206810 297.420659 363.914274 297.727912 365.616581 298.035165 367.313593 298.342418 369.005171 298.649670 370.691174 298.956923 372.371464 299.264176 374.045902 299.571429 375.714347 299.878681 377.376662 300.185934 379.032705 300.493187 380.682338 300.800440 382.325422 301.107692 383.961817 301.414945 385.591384 301.722198 387.213983 302.029451 388.829475 302.336703 390.437722 302.643956 392.038582 302.951209 393.631918 303.258462 395.217590 303.565714 396.795457 303.872967 398.365382 304.180220 399.927225 304.487473 401.480846 304.794725 403.026105 305.101978 404.562865 305.409231 406.090984 305.716484 407.610325 306.023736 409.120747 306.330989 410.622111 306.638242 412.114279 306.945495 413.597109 307.252747 415.070464 307.560000 416.534204 307.867253 417.988189 308.174505 419.432280 308.481758 420.866337 308.789011 422.290223 309.096264 423.703796 309.403516 425.106918 309.710769 426.499449 310.018022 427.881250 310.325275 429.252182 310.632527 430.612105 310.939780 431.960880 311.247033 433.298368 311.554286 434.624428 311.861538 435.938923 312.168791 437.241712 312.476044 438.532656 312.783297 439.811616 313.090549 441.078453 313.397802 442.333026 313.705055 443.575197 314.012308 444.804827 314.319560 446.021776 314.626813 447.225904 314.934066 448.417073 315.241319 449.595143 315.548571 450.759974 315.855824 451.911427 316.163077 453.049364 316.470330 454.173644 316.777582 455.284128 317.084835 456.380677 317.392088 457.463152 317.699341 458.531413 318.006593 459.585320 318.313846 460.624771 318.621099 461.649802 318.928352 462.660488 319.235604 463.656901 319.542857 464.639115 319.850110 465.607205 320.157363 466.561242 320.464615 467.501300 320.771868 468.427454 321.079121 469.339775 321.386374 470.238339 321.693626 471.123218 322.000879 471.994485 322.308132 472.852214 322.615385 473.696479 322.922637 474.527352 323.229890 475.344908 323.537143 476.149220 323.844396 476.940361 324.151648 477.718404 324.458901 478.483424 324.766154 479.235493 325.073407 479.974684 325.380659 480.701072 325.687912 481.414730 325.995165 482.115731 326.302418 482.804149 326.609670 483.480057 326.916923 484.143528 327.224176 484.794636 327.531429 485.433454 327.838681 486.060056 328.145934 486.674515 328.453187 487.276905 328.760440 487.867299 329.067692 488.445770 329.374945 489.012392 329.682198 489.567239 329.989451 490.110383 330.296703 490.641898 330.603956 491.161858 330.911209 491.670336 331.218462 492.167406 331.525714 492.653140 331.832967 493.127613 332.140220 493.590897 332.447473 494.043067 332.754725 494.484195 333.061978 494.914355 333.369231 495.333621 333.676484 495.742066 333.983736 496.139763 334.290989 496.526785 334.598242 496.903207 334.905495 497.269102 335.212747 497.624542 335.520000 497.969602 335.827253 498.304355 336.134505 498.628874 336.441758 498.943233 336.749011 499.247506 337.056264 499.541764 337.363516 499.826083 337.670769 500.100535 337.978022 500.365195 338.285275 500.620134 338.592527 500.865427 338.899780 501.101148 339.207033 501.327369 339.514286 501.544164 339.821538 501.751606 340.128791 501.949770 340.436044 502.138728 340.743297 502.318553 341.050549 502.489320 341.357802 502.651101 341.665055 502.803971 341.972308 502.948002 342.279560 503.083267 342.586813 503.209842 342.894066 503.327797 343.201319 503.437208 343.508571 503.538148 343.815824 503.630690 344.123077 503.714907 344.430330 503.790873 344.737582 503.858662 345.044835 503.918346 345.352088 503.969999 345.659341 504.013695 345.966593 504.049507 346.273846 504.077509 346.581099 504.097773 346.888352 504.110374 347.195604 504.115385 347.502857 504.112878 347.810110 504.102929 348.117363 504.085609 348.424615 504.060993 348.731868 504.029154 349.039121 503.990165 349.346374 503.944100 349.653626 503.891032 349.960879 503.831035 350.268132 503.764182 350.575385 503.690546 350.882637 503.610201 351.189890 503.523221 351.497143 503.429678 351.804396 503.329647 352.111648 503.223200 352.418901 503.110411 352.726154 502.991354 353.033407 502.866101 353.340659 502.734727 353.647912 502.597305 353.955165 502.453908 354.262418 502.304609 354.569670 502.149483 354.876923 501.988602 355.184176 501.822040 355.491429 501.649871 355.798681 501.472167 356.105934 501.289002 356.413187 501.100450 356.720440 500.906584 357.027692 500.707478 357.334945 500.503204 357.642198 500.293837 357.949451 500.079450 358.256703 499.860116 358.563956 499.635908 358.871209 499.406901 359.178462 499.173167 359.485714 498.934779 359.792967 498.691813 360.100220 498.444340 360.407473 498.192434 360.714725 497.936169 361.021978 497.675618 361.329231 497.410855 361.636484 497.141952 361.943736 496.868984 362.250989 496.592023 362.558242 496.311144 362.865495 496.026419 363.172747 495.737923 363.480000 495.445728 363.787253 495.149908 364.094505 494.850536 364.401758 494.547686 364.709011 494.241431 365.016264 493.931845 365.323516 493.619001 365.630769 493.302973 365.938022 492.983833 366.245275 492.661656 366.552527 492.336515 366.859780 492.008482 367.167033 491.677633 367.474286 491.344039 367.781538 491.007775 368.088791 490.668914 368.396044 490.327530 368.703297 489.983695 369.010549 489.637483 369.317802 489.288968 369.625055 488.938223 369.932308 488.585322 370.239560 488.230337 370.546813 487.873343 370.854066 487.514413 371.161319 487.153620 371.468571 486.791037 371.775824 486.426739 372.083077 486.060798 372.390330 485.693288 372.697582 485.324282 373.004835 484.953855 373.312088 484.582078 373.619341 484.209026 373.926593 483.834772 374.233846 483.459390 374.541099 483.082953 374.848352 482.705534 375.155604 482.327207 375.462857 481.948045 375.770110 481.568121 376.077363 481.187510 376.384615 480.806285 376.691868 480.424518 376.999121 480.042283 377.306374 479.659655 377.613626 479.276706 377.920879 478.893509 378.228132 478.510138 378.535385 478.126667 378.842637 477.743169 379.149890 477.359717 379.457143 476.976385 379.764396 476.593247 380.071648 476.210375 380.378901 475.827843 380.686154 475.445724 380.993407 475.064093 381.300659 474.683022 381.607912 474.302585 381.915165 473.922855 382.222418 473.543905 382.529670 473.165810 382.836923 472.788642 383.144176 472.412475 383.451429 472.037383 383.758681 471.663438 384.065934 471.290715 384.373187 470.919286 384.680440 470.549225 384.987692 470.180606 385.294945 469.813502 385.602198 469.447987 385.909451 469.084133 386.216703 468.722014 386.523956 468.361704 386.831209 468.003276 387.138462 467.646804 387.445714 467.292360 387.752967 466.940019 388.060220 466.589854 388.367473 466.241938 388.674725 465.896344 388.981978 465.553147 389.289231 465.212420 389.596484 464.874235 389.903736 464.538667 390.210989 464.205788 390.518242 463.875673 390.825495 463.548394 391.132747 463.224026 391.440000 462.902641 391.747253 462.584313 392.054505 462.269115 392.361758 461.957121 392.669011 461.648405 392.976264 461.343039 393.283516 461.041097 393.590769 460.742653 393.898022 460.447780 394.205275 460.156551 394.512527 459.869040 394.819780 459.585320 395.127033 459.305450 395.434286 459.029424 395.741538 458.757225 396.048791 458.488833 396.356044 458.224228 396.663297 457.963391 396.970549 457.706302 397.277802 457.452944 397.585055 457.203295 397.892308 456.957337 398.199560 456.715050 398.506813 456.476416 398.814066 456.241414 399.121319 456.010026 399.428571 455.782232 399.735824 455.558013 400.043077 455.337349 400.350330 455.120222 400.657582 454.906611 400.964835 454.696498 401.272088 454.489864 401.579341 454.286688 401.886593 454.086951 402.193846 453.890635 402.501099 453.697720 402.808352 453.508186 403.115604 453.322015 403.422857 453.139186 403.730110 452.959682 404.037363 452.783481 404.344615 452.610566 404.651868 452.440916 404.959121 452.274512 405.266374 452.111336 405.573626 451.951367 405.880879 451.794587 406.188132 451.640975 406.495385 451.490513 406.802637 451.343182 407.109890 451.198962 407.417143 451.057833 407.724396 450.919777 408.031648 450.784774 408.338901 450.652805 408.646154 450.523850 408.953407 450.397891 409.260659 450.274907 409.567912 450.154880 409.875165 450.037789 410.182418 449.923617 410.489670 449.812343 410.796923 449.703949 411.104176 449.598414 411.411429 449.495720 411.718681 449.395847 412.025934 449.298775 412.333187 449.204487 412.640440 449.112962 412.947692 449.024180 413.254945 448.938123 413.562198 448.854772 413.869451 448.774106 414.176703 448.696107 414.483956 448.620756 414.791209 448.548032 415.098462 448.477917 415.405714 448.410391 415.712967 448.345436 416.020220 448.283031 416.327473 448.223157 416.634725 448.165796 416.941978 448.110927 417.249231 448.058532 417.556484 448.008590 417.863736 447.961084 418.170989 447.915992 418.478242 447.873297 418.785495 447.832979 419.092747 447.795018 419.400000 447.759396 419.707253 447.726092 420.014505 447.695087 420.321758 447.666363 420.629011 447.639900 420.936264 447.615678 421.243516 447.593678 421.550769 447.573881 421.858022 447.556268 422.165275 447.540819 422.472527 447.527515 422.779780 447.516336 423.087033 447.507264 423.394286 447.500278 423.701538 447.495361 424.008791 447.492491 424.316044 447.491650 424.623297 447.492820 424.930549 447.495979 425.237802 447.501109 425.545055 447.508191 425.852308 447.517206 426.159560 447.528133 426.466813 447.540954 426.774066 447.555650 427.081319 447.572200 427.388571 447.590586 427.695824 447.610789 428.003077 447.632789 428.310330 447.656566 428.617582 447.682102 428.924835 447.709377 429.232088 447.738372 429.539341 447.769067 429.846593 447.801443 430.153846 447.835482 430.461099 447.871162 430.768352 447.908466 431.075604 447.947374 431.382857 447.987866 431.690110 448.029923 431.997363 448.073527 432.304615 448.118656 432.611868 448.165293 432.919121 448.213418 433.226374 448.263012 433.533626 448.314055 433.840879 448.366527 434.148132 448.420411 434.455385 448.475685 434.762637 448.532332 435.069890 448.590331 435.377143 448.649664 435.684396 448.710310 435.991648 448.772251 436.298901 448.835468 436.606154 448.899940 436.913407 448.965650 437.220659 449.032576 437.527912 449.100701 437.835165 449.170004 438.142418 449.240467 438.449670 449.312070 438.756923 449.384794 439.064176 449.458619 439.371429 449.533526 439.678681 449.609496 439.985934 449.686509 440.293187 449.764547 440.600440 449.843589 440.907692 449.923617 441.214945 450.004611 441.522198 450.086552 441.829451 450.169420 442.136703 450.253197 442.443956 450.337863 442.751209 450.423398 443.058462 450.509783 443.365714 450.596999 443.672967 450.685027 443.980220 450.773847 444.287473 450.863440 444.594725 450.953787 444.901978 451.044867 445.209231 451.136663 445.516484 451.229155 445.823736 451.322323 446.130989 451.416147 446.438242 451.510610 446.745495 451.605691 447.052747 451.701370 447.360000 451.797630 447.667253 451.894450 447.974505 451.991811 448.281758 452.089694 448.589011 452.188079 448.896264 452.286947 449.203516 452.386279 449.510769 452.486055 449.818022 452.586257 450.125275 452.686864 450.432527 452.787858 450.739780 452.889219 451.047033 452.990928 451.354286 453.092965 451.661538 453.195311 451.968791 453.297948 452.276044 453.400854 452.583297 453.504012 452.890549 453.607402 453.197802 453.711005 453.505055 453.814800 453.812308 453.918770 454.119560 454.022894 454.426813 454.127154 454.734066 454.231529 455.041319 454.336001 455.348571 454.440550 455.655824 454.545157 455.963077 454.649803 456.270330 454.754469 456.577582 454.859134 456.884835 454.963780 457.192088 455.068387 457.499341 455.172936 457.806593 455.277408 458.113846 455.381784 458.421099 455.486043 458.728352 455.590167 459.035604 455.694137 459.342857 455.797933 459.650110 455.901535 459.957363 456.004925 460.264615 456.108083 460.571868 456.210990 460.879121 456.313626 461.186374 456.415972 461.493626 456.518010 461.800879 456.619718 462.108132 456.721079 462.415385 456.822073 462.722637 456.922680 463.029890 457.022882 463.337143 457.122658 463.644396 457.221990 463.951648 457.320858 464.258901 457.419244 464.566154 457.517126 464.873407 457.614487 465.180659 457.711307 465.487912 457.807567 465.795165 457.903247 466.102418 457.998327 466.409670 458.092790 466.716923 458.186615 467.024176 458.279782 467.331429 458.372274 467.638681 458.464070 467.945934 458.555151 468.253187 458.645497 468.560440 458.735090 468.867692 458.823910 469.174945 458.911938 469.482198 458.999154 469.789451 459.085540 470.096703 459.171075 470.403956 459.255740 470.711209 459.339517 471.018462 459.422385 471.325714 459.504326 471.632967 459.585320 471.940220 459.665352 472.247473 459.744421 472.554725 459.822532 472.861978 459.899689 473.169231 459.975894 473.476484 460.051153 473.783736 460.125469 474.090989 460.198846 474.398242 460.271287 474.705495 460.342798 475.012747 460.413380 475.320000 460.483039 475.627253 460.551778 475.934505 460.619602 476.241758 460.686513 476.549011 460.752516 476.856264 460.817614 477.163516 460.881812 477.470769 460.945114 477.778022 461.007523 478.085275 461.069043 478.392527 461.129678 478.699780 461.189431 479.007033 461.248308 479.314286 461.306311 479.621538 461.363444 479.928791 461.419712 480.236044 461.475118 480.543297 461.529666 480.850549 461.583360 481.157802 461.636204 481.465055 461.688201 481.772308 461.739356 482.079560 461.789672 482.386813 461.839154 482.694066 461.887804 483.001319 461.935628 483.308571 461.982628 483.615824 462.028809 483.923077 462.074175 484.230330 462.118729 484.537582 462.162475 484.844835 462.205417 485.152088 462.247560 485.459341 462.288906 485.766593 462.329460 486.073846 462.369226 486.381099 462.408207 486.688352 462.446407 486.995604 462.483831 487.302857 462.520482 487.610110 462.556363 487.917363 462.591480 488.224615 462.625835 488.531868 462.659432 488.839121 462.692276 489.146374 462.724371 489.453626 462.755719 489.760879 462.786325 490.068132 462.816194 490.375385 462.845327 490.682637 462.873731 490.989890 462.901408 491.297143 462.928362 491.604396 462.954597 491.911648 462.980118 492.218901 463.004927 492.526154 463.029029 492.833407 463.052428 493.140659 463.075127 493.447912 463.097131 493.755165 463.118443 494.062418 463.139066 494.369670 463.159006 494.676923 463.178266 494.984176 463.196849 495.291429 463.214760 495.598681 463.232002 495.905934 463.248580 496.213187 463.264497 496.520440 463.279756 496.827692 463.294363 497.134945 463.308320 497.442198 463.321632 497.749451 463.334302 498.056703 463.346335 498.363956 463.357734 498.671209 463.368503 498.978462 463.378646 499.285714 463.388166 499.592967 463.397069 499.900220 463.405356 500.207473 463.413034 500.514725 463.420104 500.821978 463.426572 501.129231 463.432440 501.436484 463.437714 501.743736 463.442396 502.050989 463.446490 502.358242 463.450001 502.665495 463.452933 502.972747 463.455288 503.280000 463.457072 503.587253 463.458287 503.894505 463.458938 504.201758 463.459029 504.509011 463.458563 504.816264 463.457545 505.123516 463.455978 505.430769 463.453866 505.738022 463.451213 506.045275 463.448023 506.352527 463.444299 506.659780 463.440046 506.967033 463.435267 507.274286 463.429967 507.581538 463.424149 507.888791 463.417816 508.196044 463.410974 508.503297 463.403625 508.810549 463.395774 509.117802 463.387424 509.425055 463.378580 509.732308 463.369245 510.039560 463.359423 510.346813 463.349118 510.654066 463.338333 510.961319 463.327074 511.268571 463.315342 511.575824 463.303143 511.883077 463.290481 512.190330 463.277358 512.497582 463.263780 512.804835 463.249749 513.112088 463.235270 513.419341 463.220346 513.726593 463.204982 514.033846 463.189182 514.341099 463.172948 514.648352 463.156286 514.955604 463.139198 515.262857 463.121689 515.570110 463.103763 515.877363 463.085423 516.184615 463.066673 516.491868 463.047518 516.799121 463.027961 517.106374 463.008005 517.413626 462.987656 517.720879 462.966916 518.028132 462.945790 518.335385 462.924281 518.642637 462.902393 518.949890 462.880131 519.257143 462.857497 519.564396 462.834497 519.871648 462.811133 520.178901 462.787409 520.486154 462.763331 520.793407 462.738900 521.100659 462.714122 521.407912 462.688999 521.715165 462.663537 522.022418 462.637738 522.329670 462.611607 522.636923 462.585147 522.944176 462.558363 523.251429 462.531258 523.558681 462.503837 523.865934 462.476102 524.173187 462.448058 524.480440 462.419708 524.787692 462.391057 525.094945 462.362109 525.402198 462.332867 525.709451 462.303335 526.016703 462.273517 526.323956 462.243417 526.631209 462.213039 526.938462 462.182386 527.245714 462.151463 527.552967 462.120273 527.860220 462.088820 528.167473 462.057108 528.474725 462.025142 528.781978 461.992924 529.089231 461.960458 529.396484 461.927750 529.703736 461.894801 530.010989 461.861617 530.318242 461.828201 530.625495 461.794557 530.932747 461.760689 531.240000 461.726601 531.547253 461.692296 531.854505 461.657779 532.161758 461.623052 532.469011 461.588122 532.776264 461.552990 533.083516 461.517661 533.390769 461.482138 533.698022 461.446427 534.005275 461.410530 534.312527 461.374451 534.619780 461.338195 534.927033 461.301764 535.234286 461.265164 535.541538 461.228397 535.848791 461.191468 536.156044 461.154381 536.463297 461.117139 536.770549 461.079746 537.077802 461.042206 537.385055 461.004524 537.692308 460.966702 537.999560 460.928745 538.306813 460.890657 538.614066 460.852441 538.921319 460.814101 539.228571 460.775642 539.535824 460.737067 539.843077 460.698379 540.150330 460.659584 540.457582 460.620684 540.764835 460.581683 541.072088 460.542586 541.379341 460.503396 541.686593 460.464118 541.993846 460.424754 542.301099 460.385309 542.608352 460.345787 542.915604 460.306191 543.222857 460.266526 543.530110 460.226795 543.837363 460.187003 544.144615 460.147152 544.451868 460.107247 544.759121 460.067292 545.066374 460.027291 545.373626 459.987247 545.680879 459.947164 545.988132 459.907047 546.295385 459.866899 546.602637 459.826724 546.909890 459.786525 547.217143 459.746307 547.524396 459.706074 547.831648 459.665829 548.138901 459.625577 548.446154 459.585320 548.446154 459.585320" /></g><g class="series serie-1 color-1"><path class="line reactive" d="M10.753846 459.585320 L10.753846 24.275038 11.061099 26.305234 11.368352 28.335365 11.675604 30.365367 11.982857 32.395177 12.290110 34.424729 12.597363 36.453959 12.904615 38.482804 13.211868 40.511198 13.519121 42.539077 13.826374 44.566376 14.133626 46.593033 14.440879 48.618981 14.748132 50.644158 15.055385 52.668497 15.362637 54.691936 15.669890 56.714410 15.977143 58.735854 16.284396 60.756204 16.591648 62.775396 16.898901 64.793365 17.206154 66.810047 17.513407 68.825378 17.820659 70.839293 18.127912 72.851728 18.435165 74.862619 18.742418 76.871901 19.049670 78.879510 19.356923 80.885381 19.664176 82.889450 19.971429 84.891654 20.278681 86.891927 20.585934 88.890205 20.893187 90.886424 21.200440 92.880519 21.507692 94.872427 21.814945 96.862082 22.122198 98.849420 22.429451 100.834378 22.736703 102.816890 23.043956 104.796893 23.351209 106.774322 23.658462 108.749112 23.965714 110.721200 24.272967 112.690520 24.580220 114.657010 24.887473 116.620603 25.194725 118.581237 25.501978 120.538845 25.809231 122.493366 26.116484 124.444733 26.423736 126.392882 26.730989 128.337750 27.038242 130.279271 27.345495 132.217382 27.652747 134.152018 27.960000 136.083115 28.267253 138.010608 28.574505 139.934433 28.881758 141.854526 29.189011 143.770823 29.496264 145.683258 29.803516 147.591768 30.110769 149.496288 30.418022 151.396754 30.725275 153.293102 31.032527 155.185267 31.339780 157.073185 31.647033 158.956792 31.954286 160.836023 32.261538 162.710813 32.568791 164.581100 32.876044 166.446817 33.183297 168.307901 33.490549 170.164287 33.797802 172.015912 34.105055 173.862711 34.412308 175.704618 34.719560 177.541571 35.026813 179.373505 35.334066 181.200355 35.641319 183.022057 35.948571 184.838546 36.255824 186.649759 36.563077 188.455631 36.870330 190.256098 37.177582 192.051094 37.484835 193.840557 37.792088 195.624421 38.099341 197.402623 38.406593 199.175097 38.713846 200.941780 39.021099 202.702607 39.328352 204.457514 39.635604 206.206436 39.942857 207.949309 40.250110 209.686069 40.557363 211.416652 40.864615 213.140992 41.171868 214.859027 41.479121 216.570690 41.786374 218.275919 42.093626 219.974648 42.400879 221.666814 42.708132 223.352351 43.015385 225.031197 43.322637 226.703285 43.629890 228.368552 43.937143 230.026934 44.244396 231.678366 44.551648 233.322784 44.858901 234.960124 45.166154 236.590321 45.473407 238.213310 45.780659 239.829028 46.087912 241.437410 46.395165 243.038392 46.702418 244.631909 47.009670 246.217897 47.316923 247.796292 47.624176 249.367030 47.931429 250.930045 48.238681 252.485274 48.545934 254.032653 48.853187 255.572116 49.160440 257.103600 49.467692 258.627040 49.774945 260.142372 50.082198 261.649532 50.389451 263.148455 50.696703 264.639076 51.003956 266.121333 51.311209 267.595159 51.618462 269.060491 51.925714 270.517265 52.232967 271.965416 52.540220 273.404879 52.847473 274.835591 53.154725 276.257488 53.461978 277.670503 53.769231 279.074574 54.076484 280.469637 54.383736 281.855625 54.690989 283.232476 54.998242 284.600126 55.305495 285.958508 55.612747 287.307560 55.920000 288.647217 56.227253 289.977415 56.534505 291.298088 56.841758 292.609174 57.149011 293.910607 57.456264 295.202323 57.763516 296.484258 58.070769 297.756348 58.378022 299.018527 58.685275 300.270733 58.992527 301.512899 59.299780 302.744963 59.607033 303.966860 59.914286 305.178525 60.221538 306.379894 60.528791 307.570902 60.836044 308.751486 61.143297 309.921581 61.450549 311.081123 61.757802 312.230047 62.065055 313.368288 62.372308 314.495784 62.679560 315.612468 62.986813 316.718277 63.294066 317.813147 63.601319 318.897013 63.908571 319.969811 64.215824 321.031477 64.523077 322.081945 64.830330 323.121152 65.137582 324.149034 65.444835 325.165526 65.752088 326.170563 66.059341 327.164082 66.366593 328.146018 66.673846 329.116306 66.981099 330.074883 67.288352 331.021684 67.595604 331.956644 67.902857 332.879700 68.210110 333.790786 68.517363 334.689839 68.824615 335.576795 69.131868 336.451588 69.439121 337.314155 69.746374 338.164431 70.053626 339.002352 70.360879 339.827853 70.668132 340.640870 70.975385 341.441339 71.282637 342.229196 71.589890 343.004375 71.897143 343.766814 72.204396 344.516446 72.511648 345.253209 72.818901 345.977037 73.126154 346.687867 73.433407 347.385634 73.740659 348.070273 74.047912 348.741721 74.355165 349.399912 74.662418 350.044783 74.969670 350.676269 75.276923 351.294307 75.584176 351.898830 75.891429 352.489776 76.198681 353.067080 76.505934 353.630677 76.813187 354.180503 77.120440 354.716494 77.427692 355.238586 77.734945 355.746713 78.042198 356.240812 78.349451 356.720819 78.656703 357.186669 78.963956 357.638297 79.271209 358.075640 79.578462 358.498632 79.885714 358.907211 80.192967 359.301310 80.500220 359.680867 80.807473 360.045816 81.114725 360.396093 81.421978 360.731634 81.729231 361.052375 82.036484 361.358250 82.343736 361.649197 82.650989 361.925150 82.958242 362.186045 83.265495 362.431818 83.572747 362.662405 83.880000 362.877740 84.187253 363.077760 84.494505 363.262401 84.801758 363.431598 85.109011 363.585286 85.416264 363.723402 85.723516 363.845880 86.030769 363.952657 86.338022 364.043669 86.645275 364.118850 86.952527 364.178137 87.259780 364.221466 87.567033 364.248771 87.874286 364.260021 88.181538 364.255318 88.488791 364.234796 88.796044 364.198587 89.103297 364.146827 89.410549 364.079648 89.717802 363.997185 90.025055 363.899572 90.332308 363.786942 90.639560 363.659429 90.946813 363.517168 91.254066 363.360292 91.561319 363.188934 91.868571 363.003230 92.175824 362.803312 92.483077 362.589315 92.790330 362.361372 93.097582 362.119617 93.404835 361.864185 93.712088 361.595209 94.019341 361.312822 94.326593 361.017159 94.633846 360.708354 94.941099 360.386541 95.248352 360.051852 95.555604 359.704423 95.862857 359.344387 96.170110 358.971878 96.477363 358.587030 96.784615 358.189977 97.091868 357.780852 97.399121 357.359789 97.706374 356.926923 98.013626 356.482387 98.320879 356.026315 98.628132 355.558841 98.935385 355.080099 99.242637 354.590223 99.549890 354.089346 99.857143 353.577602 100.164396 353.055125 100.471648 352.522050 100.778901 351.978510 101.086154 351.424638 101.393407 350.860570 101.700659 350.286437 102.007912 349.702376 102.315165 349.108518 102.622418 348.504999 102.929670 347.891952 103.236923 347.269511 103.544176 346.637809 103.851429 345.996982 104.158681 345.347162 104.465934 344.688483 104.773187 344.021079 105.080440 343.345085 105.387692 342.660634 105.694945 341.967859 106.002198 341.266895 106.309451 340.557876 106.616703 339.840936 106.923956 339.116207 107.231209 338.383825 107.538462 337.643923 107.845714 336.896635 108.152967 336.142095 108.460220 335.380437 108.767473 334.611794 109.074725 333.836300 109.381978 333.054090 109.689231 332.265297 109.996484 331.470055 110.303736 330.668498 110.610989 329.860759 110.918242 329.046974 111.225495 328.227274 111.532747 327.401796 111.840000 326.570671 112.147253 325.734034 112.454505 324.892020 112.761758 324.044761 113.069011 323.192392 113.376264 322.335047 113.683516 321.472859 113.990769 320.605962 114.298022 319.734491 114.605275 318.858578 114.912527 317.978359 115.219780 317.093966 115.527033 316.205534 115.834286 315.313197 116.141538 314.417088 116.448791 313.517341 116.756044 312.614090 117.063297 311.707469 117.370549 310.797612 117.677802 309.884653 117.985055 308.968726 118.292308 308.049964 118.599560 307.128501 118.906813 306.204472 119.214066 305.278009 119.521319 304.349248 119.828571 303.418321 120.135824 302.485363 120.443077 301.550507 120.750330 300.613888 121.057582 299.675640 121.364835 298.735895 121.672088 297.794789 121.979341 296.852454 122.286593 295.909025 122.593846 294.964636 122.901099 294.019420 123.208352 293.073511 123.515604 292.127044 123.822857 291.180152 124.130110 290.232969 124.437363 289.285628 124.744615 288.338265 125.051868 287.391012 125.359121 286.444003 125.666374 285.497373 125.973626 284.551255 126.280879 283.605783 126.588132 282.661090 126.895385 281.717312 127.202637 280.774581 127.509890 279.833032 127.817143 278.892798 128.124396 277.954013 128.431648 277.016812 128.738901 276.081327 129.046154 275.147694 129.353407 274.216045 129.660659 273.286514 129.967912 272.359236 130.275165 271.434345 130.582418 270.511973 130.889670 269.592256 131.196923 268.675327 131.504176 267.761319 131.811429 266.850367 132.118681 265.942605 132.425934 265.038166 132.733187 264.137184 133.040440 263.239794 133.347692 262.346128 133.654945 261.456321 133.962198 260.570507 134.269451 259.688820 134.576703 258.811393 134.883956 257.938361 135.191209 257.069857 135.498462 256.206014 135.805714 255.346968 136.112967 254.492852 136.420220 253.643799 136.727473 252.799944 137.034725 251.961420 137.341978 251.128362 137.649231 250.300902 137.956484 249.479176 138.263736 248.663317 138.570989 247.853458 138.878242 247.049734 139.185495 246.252279 139.492747 245.461226 139.800000 244.676709 140.107253 243.898862 140.414505 243.127819 140.721758 242.363714 141.029011 241.606681 141.336264 240.856854 141.643516 240.114365 141.950769 239.379351 142.258022 238.651943 142.565275 237.932276 142.872527 237.220485 143.179780 236.516702 143.487033 235.821061 143.794286 235.133698 144.101538 234.454744 144.408791 233.784335 144.716044 233.122604 145.023297 232.469685 145.330549 231.825712 145.637802 231.190819 145.945055 230.565139 146.252308 229.948807 146.559560 229.341956 146.866813 228.744720 147.174066 228.157233 147.481319 227.579630 147.788571 227.012043 148.095824 226.454607 148.403077 225.907455 148.710330 225.370722 149.017582 224.844541 149.324835 224.329046 149.632088 223.824371 149.939341 223.330650 150.246593 222.848017 150.553846 222.376605 150.861099 221.916549 151.168352 221.467982 151.475604 221.031039 151.782857 220.605853 152.090110 220.192557 152.397363 219.791287 152.704615 219.402175 153.011868 219.025355 153.319121 218.660962 153.626374 218.309130 153.933626 217.969991 154.240879 217.643681 154.548132 217.330333 154.855385 217.030080 155.162637 216.743057 155.469890 216.469397 155.777143 216.209235 156.084396 215.962704 156.391648 215.729939 156.698901 215.511072 157.006154 215.306238 157.313407 215.115571 157.620659 214.939204 157.927912 214.777272 158.235165 214.629908 158.542418 214.497246 158.849670 214.379421 159.156923 214.276565 159.464176 214.188813 159.771429 214.116299 160.078681 214.059156 160.385934 214.017519 160.693187 213.991521 161.000440 213.981296 161.307692 213.986979 161.614945 214.008702 161.922198 214.046599 162.229451 214.100806 162.536703 214.171455 162.843956 214.258680 163.151209 214.362615 163.458462 214.483395 163.765714 214.621152 164.072967 214.776022 164.380220 214.948137 164.687473 215.137586 164.994725 215.344280 165.301978 215.568083 165.609231 215.808859 165.916484 216.066472 166.223736 216.340788 166.530989 216.631671 166.838242 216.938986 167.145495 217.262597 167.452747 217.602369 167.760000 217.958166 168.067253 218.329853 168.374505 218.717294 168.681758 219.120354 168.989011 219.538899 169.296264 219.972791 169.603516 220.421896 169.910769 220.886078 170.218022 221.365203 170.525275 221.859134 170.832527 222.367736 171.139780 222.890873 171.447033 223.428411 171.754286 223.980214 172.061538 224.546146 172.368791 225.126072 172.676044 225.719857 172.983297 226.327365 173.290549 226.948461 173.597802 227.583009 173.905055 228.230873 174.212308 228.891920 174.519560 229.566012 174.826813 230.253015 175.134066 230.952793 175.441319 231.665211 175.748571 232.390133 176.055824 233.127424 176.363077 233.876948 176.670330 234.638571 176.977582 235.412156 177.284835 236.197568 177.592088 236.994673 177.899341 237.803333 178.206593 238.623415 178.513846 239.454782 178.821099 240.297299 179.128352 241.150831 179.435604 242.015242 179.742857 242.890397 180.050110 243.776161 180.357363 244.672397 180.664615 245.578971 180.971868 246.495747 181.279121 247.422590 181.586374 248.359364 181.893626 249.305934 182.200879 250.262165 182.508132 251.227920 182.815385 252.203066 183.122637 253.187465 183.429890 254.180983 183.737143 255.183484 184.044396 256.194834 184.351648 257.214896 184.658901 258.243535 184.966154 259.280615 185.273407 260.326002 185.580659 261.379560 185.887912 262.441152 186.195165 263.510645 186.502418 264.587903 186.809670 265.672790 187.116923 266.765170 187.424176 267.864908 187.731429 268.971870 188.038681 270.085919 188.345934 271.206919 188.653187 272.334737 188.960440 273.469235 189.267692 274.610280 189.574945 275.757734 189.882198 276.911464 190.189451 278.071333 190.496703 279.237206 190.803956 280.408947 191.111209 281.586422 191.418462 282.769495 191.725714 283.958030 192.032967 285.151891 192.340220 286.350945 192.647473 287.555054 192.954725 288.764084 193.261978 289.977900 193.569231 291.196365 193.876484 292.419344 194.183736 293.646703 194.490989 294.878305 194.798242 296.114015 195.105495 297.353698 195.412747 298.597218 195.720000 299.844440 196.027253 301.095228 196.334505 302.349447 196.641758 303.606962 196.949011 304.867638 197.256264 306.131338 197.563516 307.397927 197.870769 308.667270 198.178022 309.939231 198.485275 311.213676 198.792527 312.490468 199.099780 313.769473 199.407033 315.050554 199.714286 316.333576 200.021538 317.618405 200.328791 318.904904 200.636044 320.192938 200.943297 321.482372 201.250549 322.773070 201.557802 324.064897 201.865055 325.357717 202.172308 326.651395 202.479560 327.945796 202.786813 329.240784 203.094066 330.536223 203.401319 331.831979 203.708571 333.127916 204.015824 334.423898 204.323077 335.719790 204.630330 337.015457 204.937582 338.310763 205.244835 339.605572 205.552088 340.899750 205.859341 342.193161 206.166593 343.485669 206.473846 344.777140 206.781099 346.067437 207.088352 347.356425 207.395604 348.643969 207.702857 349.929933 208.010110 351.214183 208.317363 352.496582 208.624615 353.776995 208.931868 355.055286 209.239121 356.331321 209.546374 357.604964 209.853626 358.876079 210.160879 360.144531 210.468132 361.410184 210.775385 362.672904 211.082637 363.932555 211.389890 365.189000 211.697143 366.442106 212.004396 367.691736 212.311648 368.937755 212.618901 370.180028 212.926154 371.418419 213.233407 372.652792 213.540659 373.883013 213.847912 375.108946 214.155165 376.330455 214.462418 377.547406 214.769670 378.759662 215.076923 379.967088 215.384176 381.169549 215.691429 382.366909 215.998681 383.559034 216.305934 384.745786 216.613187 385.927032 216.920440 387.102636 217.227692 388.272462 217.534945 389.436375 217.842198 390.594239 218.149451 391.745919 218.456703 392.891279 218.763956 394.030185 219.071209 395.162501 219.378462 396.288091 219.685714 397.406819 219.992967 398.518551 220.300220 399.623152 220.607473 400.720484 220.914725 401.810414 221.221978 402.892806 221.529231 403.967524 221.836484 405.034433 222.143736 406.093397 222.450989 407.144282 222.758242 408.186951 223.065495 409.221269 223.372747 410.247102 223.680000 411.264312 223.987253 412.272766 224.294505 413.272327 224.601758 414.262860 224.909011 415.244230 225.216264 416.216301 225.523516 417.178938 225.830769 418.132005 226.138022 419.075367 226.445275 420.008889 226.752527 420.932435 227.059780 421.845870 227.367033 422.749058 227.674286 423.641864 227.981538 424.524152 228.288791 425.395788 228.596044 426.256635 228.903297 427.106558 229.210549 427.945422 229.517802 428.773091 229.825055 429.589431 230.132308 430.394304 230.439560 431.187577 230.746813 431.969114 231.054066 432.738778 231.361319 433.496436 231.668571 434.241951 231.975824 434.975187 232.283077 435.696011 232.590330 436.404285 232.897582 437.099875 233.204835 437.782646 233.512088 438.452461 233.819341 439.109186 234.126593 439.752685 234.433846 440.382822 234.741099 440.999462 235.048352 441.602470 235.355604 442.191711 235.662857 442.767048 235.970110 443.328347 236.277363 443.875472 236.584615 444.408287 236.891868 444.926658 237.199121 445.430449 237.506374 445.919523 237.813626 446.393747 238.120879 446.852984 238.428132 447.297100 238.735385 447.725958 239.042637 448.139423 239.349890 448.537360 239.657143 448.919633 239.964396 449.286107 240.271648 449.636647 240.578901 449.971117 240.886154 450.289382 241.193407 450.591306 241.500659 450.876796 241.807912 451.145925 242.115165 451.398809 242.422418 451.635564 242.729670 451.856306 243.036923 452.061149 243.344176 452.250210 243.651429 452.423605 243.958681 452.581449 244.265934 452.723857 244.573187 452.850945 244.880440 452.962829 245.187692 453.059625 245.494945 453.141448 245.802198 453.208414 246.109451 453.260638 246.416703 453.298236 246.723956 453.321325 247.031209 453.330018 247.338462 453.324432 247.645714 453.304684 247.952967 453.270887 248.260220 453.223158 248.567473 453.161613 248.874725 453.086367 249.181978 452.997536 249.489231 452.895236 249.796484 452.779581 250.103736 452.650689 250.410989 452.508673 250.718242 452.353651 251.025495 452.185738 251.332747 452.005049 251.640000 451.811699 251.947253 451.605806 252.254505 451.387483 252.561758 451.156848 252.869011 450.914015 253.176264 450.659100 253.483516 450.392220 253.790769 450.113488 254.098022 449.823022 254.405275 449.520936 254.712527 449.207347 255.019780 448.882370 255.327033 448.546120 255.634286 448.198714 255.941538 447.840266 256.248791 447.470893 256.556044 447.090711 256.863297 446.699834 257.170549 446.298379 257.477802 445.886461 257.785055 445.464195 258.092308 445.031699 258.399560 444.589086 258.706813 444.136473 259.014066 443.673975 259.321319 443.201708 259.628571 442.719788 259.935824 442.228330 260.243077 441.727449 260.550330 441.217263 260.857582 440.697885 261.164835 440.169433 261.472088 439.632021 261.779341 439.085765 262.086593 438.530780 262.393846 437.967183 262.701099 437.395089 263.008352 436.814614 263.315604 436.225873 263.622857 435.628982 263.930110 435.024057 264.237363 434.411212 264.544615 433.790565 264.851868 433.162230 265.159121 432.526323 265.466374 431.882960 265.773626 431.232257 266.080879 430.574328 266.388132 429.909290 266.695385 429.237259 267.002637 428.558349 267.309890 427.872677 267.617143 427.180359 267.924396 426.481509 268.231648 425.776244 268.538901 425.064679 268.846154 424.346929 269.153407 423.623112 269.460659 422.893341 269.767912 422.157733 270.075165 421.416403 270.382418 420.669468 270.689670 419.917042 270.996923 419.159241 271.304176 418.396181 271.611429 417.627978 271.918681 416.854747 272.225934 416.076604 272.533187 415.293665 272.840440 414.506044 273.147692 413.713859 273.454945 412.917223 273.762198 412.116254 274.069451 411.311067 274.376703 410.501777 274.683956 409.688499 274.991209 408.871351 275.298462 408.050447 275.605714 407.225902 275.912967 406.397833 276.220220 405.566355 276.527473 404.731585 276.834725 403.893636 277.141978 403.052626 277.449231 402.208669 277.756484 401.361882 278.063736 400.512380 278.370989 399.660278 278.678242 398.805693 278.985495 397.948740 279.292747 397.089534 279.600000 396.228191 279.907253 395.364828 280.214505 394.499558 280.521758 393.632499 280.829011 392.763766 281.136264 391.893474 281.443516 391.021739 281.750769 390.148677 282.058022 389.274403 282.365275 388.399034 282.672527 387.522683 282.979780 386.645468 283.287033 385.767504 283.594286 384.888907 283.901538 384.009792 284.208791 383.130274 284.516044 382.250470 284.823297 381.370495 285.130549 380.490465 285.437802 379.610495 285.745055 378.730701 286.052308 377.851199 286.359560 376.972104 286.666813 376.093532 286.974066 375.215599 287.281319 374.338419 287.588571 373.462110 287.895824 372.586786 288.203077 371.712564 288.510330 370.839558 288.817582 369.967884 289.124835 369.097659 289.432088 368.228997 289.739341 367.362015 290.046593 366.496827 290.353846 365.633550 290.661099 364.772300 290.968352 363.913191 291.275604 363.056340 291.582857 362.201862 291.890110 361.349873 292.197363 360.500488 292.504615 359.653824 292.811868 358.809995 293.119121 357.969118 293.426374 357.131307 293.733626 356.296679 294.040879 355.465350 294.348132 354.637434 294.655385 353.813048 294.962637 352.992308 295.269890 352.175328 295.577143 351.362224 295.884396 350.553113 296.191648 349.748109 296.498901 348.947329 296.806154 348.150888 297.113407 347.358902 297.420659 346.571486 297.727912 345.788756 298.035165 345.010828 298.342418 344.237817 298.649670 343.469838 298.956923 342.707009 299.264176 341.949443 299.571429 341.197257 299.878681 340.450567 300.185934 339.709488 300.493187 338.974136 300.800440 338.244626 301.107692 337.521073 301.414945 336.803595 301.722198 336.092306 302.029451 335.387322 302.336703 334.688758 302.643956 333.996731 302.951209 333.311356 303.258462 332.632748 303.565714 331.961023 303.872967 331.296297 304.180220 330.638685 304.487473 329.988303 304.794725 329.345268 305.101978 328.709693 305.409231 328.081695 305.716484 327.461390 306.023736 326.848894 306.330989 326.244321 306.638242 325.647788 306.945495 325.059410 307.252747 324.479302 307.560000 323.907582 307.867253 323.344363 308.174505 322.789762 308.481758 322.243894 308.789011 321.706876 309.096264 321.178822 309.403516 320.659848 309.710769 320.150070 310.018022 319.649604 310.325275 319.158565 310.632527 318.677069 310.939780 318.205232 311.247033 317.743168 311.554286 317.290995 311.861538 316.848827 312.168791 316.416779 312.476044 315.994969 312.783297 315.583511 313.090549 315.182521 313.397802 314.792114 313.705055 314.412407 314.012308 314.043515 314.319560 313.685553 314.626813 313.338637 314.934066 313.002883 315.241319 312.678407 315.548571 312.365324 315.855824 312.063749 316.163077 311.773799 316.470330 311.495589 316.777582 311.229235 317.084835 310.974851 317.392088 310.732555 317.699341 310.502462 318.006593 310.284686 318.313846 310.079313 318.621099 309.886297 318.928352 309.705564 319.235604 309.537038 319.542857 309.380643 319.850110 309.236303 320.157363 309.103943 320.464615 308.983487 320.771868 308.874859 321.079121 308.777983 321.386374 308.692785 321.693626 308.619187 322.000879 308.557115 322.308132 308.506492 322.615385 308.467243 322.922637 308.439293 323.229890 308.422565 323.537143 308.416983 323.844396 308.422473 324.151648 308.438959 324.458901 308.466364 324.766154 308.504613 325.073407 308.553630 325.380659 308.613340 325.687912 308.683667 325.995165 308.764535 326.302418 308.855868 326.609670 308.957592 326.916923 309.069629 327.224176 309.191904 327.531429 309.324342 327.838681 309.466868 328.145934 309.619404 328.453187 309.781876 328.760440 309.954207 329.067692 310.136323 329.374945 310.328147 329.682198 310.529604 329.989451 310.740617 330.296703 310.961112 330.603956 311.191013 330.911209 311.430243 331.218462 311.678727 331.525714 311.936390 331.832967 312.203156 332.140220 312.478948 332.447473 312.763692 332.754725 313.057312 333.061978 313.359731 333.369231 313.670875 333.676484 313.990667 333.983736 314.319031 334.290989 314.655893 334.598242 315.001176 334.905495 315.354805 335.212747 315.716704 335.520000 316.086797 335.827253 316.465008 336.134505 316.851262 336.441758 317.245484 336.749011 317.647597 337.056264 318.057525 337.363516 318.475193 337.670769 318.900526 337.978022 319.333447 338.285275 319.773881 338.592527 320.221752 338.899780 320.676985 339.207033 321.139503 339.514286 321.609232 339.821538 322.086095 340.128791 322.570016 340.436044 323.060920 340.743297 323.558731 341.050549 324.063374 341.357802 324.574773 341.665055 325.092852 341.972308 325.617535 342.279560 326.148746 342.586813 326.686411 342.894066 327.230453 343.201319 327.780796 343.508571 328.337365 343.815824 328.900085 344.123077 329.468878 344.430330 330.043671 344.737582 330.624386 345.044835 331.210949 345.352088 331.803283 345.659341 332.401313 345.966593 333.004963 346.273846 333.614158 346.581099 334.228821 346.888352 334.848878 347.195604 335.474252 347.502857 336.104867 347.810110 336.740648 348.117363 337.381520 348.424615 338.027406 348.731868 338.678231 349.039121 339.333918 349.346374 339.994394 349.653626 340.659581 349.960879 341.329403 350.268132 342.003786 350.575385 342.682654 350.882637 343.365930 351.189890 344.053540 351.497143 344.745407 351.804396 345.441456 352.111648 346.141610 352.418901 346.845795 352.726154 347.553935 353.033407 348.265953 353.340659 348.981775 353.647912 349.701324 353.955165 350.424525 354.262418 351.151301 354.569670 351.881579 354.876923 352.615280 355.184176 353.352331 355.491429 354.092655 355.798681 354.836176 356.105934 355.582820 356.413187 356.332509 356.720440 357.085169 357.027692 357.840723 357.334945 358.599096 357.642198 359.360213 357.949451 360.123997 358.256703 360.890373 358.563956 361.659265 358.871209 362.430597 359.178462 363.204295 359.485714 363.980281 359.792967 364.758480 360.100220 365.538818 360.407473 366.321217 360.714725 367.105602 361.021978 367.891897 361.329231 368.680028 361.636484 369.469917 361.943736 370.261490 362.250989 371.054671 362.558242 371.849383 362.865495 372.645552 363.172747 373.443101 363.480000 374.241955 363.787253 375.042038 364.094505 375.843274 364.401758 376.645588 364.709011 377.448904 365.016264 378.253147 365.323516 379.058239 365.630769 379.864107 365.938022 380.670674 366.245275 381.477864 366.552527 382.285603 366.859780 383.093813 367.167033 383.902419 367.474286 384.711346 367.781538 385.520518 368.088791 386.329859 368.396044 387.139294 368.703297 387.948746 369.010549 388.758140 369.317802 389.567401 369.625055 390.376452 369.932308 391.185219 370.239560 391.993624 370.546813 392.801593 370.854066 393.609050 371.161319 394.415919 371.468571 395.222125 371.775824 396.027591 372.083077 396.832242 372.390330 397.636003 372.697582 398.438797 373.004835 399.240548 373.312088 400.041182 373.619341 400.840623 373.926593 401.638794 374.233846 402.435620 374.541099 403.231026 374.848352 404.024935 375.155604 404.817272 375.462857 405.607961 375.770110 406.396927 376.077363 407.184094 376.384615 407.969385 376.691868 408.752726 376.999121 409.534041 377.306374 410.313253 377.613626 411.090288 377.920879 411.865070 378.228132 412.637522 378.535385 413.407569 378.842637 414.175136 379.149890 414.940146 379.457143 415.702525 379.764396 416.462196 380.071648 417.219083 380.378901 417.973111 380.686154 418.724205 380.993407 419.472287 381.300659 420.217284 381.607912 420.959119 381.915165 421.697716 382.222418 422.432999 382.529670 423.164894 382.836923 423.893323 383.144176 424.618213 383.451429 425.339486 383.758681 426.057067 384.065934 426.770880 384.373187 427.480851 384.680440 428.186902 384.987692 428.888958 385.294945 429.586944 385.602198 430.280784 385.909451 430.970402 386.216703 431.655722 386.523956 432.336669 386.831209 433.013167 387.138462 433.685141 387.445714 434.352514 387.752967 435.015210 388.060220 435.673155 388.367473 436.326273 388.674725 436.974487 388.981978 437.617723 389.289231 438.255903 389.596484 438.888954 389.903736 439.516798 390.210989 440.139360 390.518242 440.756565 390.825495 441.368337 391.132747 441.974600 391.440000 442.575278 391.747253 443.170296 392.054505 443.759578 392.361758 444.343049 392.669011 444.920631 392.976264 445.492251 393.283516 446.057832 393.590769 446.617298 393.898022 447.170574 394.205275 447.717584 394.512527 448.258252 394.819780 448.792503 395.127033 449.320279 395.434286 449.841591 395.741538 450.356469 396.048791 450.864943 396.356044 451.367043 396.663297 451.862798 396.970549 452.352239 397.277802 452.835394 397.585055 453.312294 397.892308 453.782968 398.199560 454.247446 398.506813 454.705758 398.814066 455.157933 399.121319 455.604001 399.428571 456.043992 399.735824 456.477935 400.043077 456.905860 400.350330 457.327797 400.657582 457.743776 400.964835 458.153826 401.272088 458.557977 401.579341 458.956258 401.886593 459.348700 402.193846 459.735332 402.501099 460.116184 402.808352 460.491285 403.115604 460.860665 403.422857 461.224355 403.730110 461.582382 404.037363 461.934778 404.344615 462.281572 404.651868 462.622794 404.959121 462.958473 405.266374 463.288639 405.573626 463.613322 405.880879 463.932552 406.188132 464.246357 406.495385 464.554769 406.802637 464.857816 407.109890 465.155528 407.417143 465.447936 407.724396 465.735068 408.031648 466.016954 408.338901 466.293625 408.646154 466.565110 408.953407 466.831438 409.260659 467.092639 409.567912 467.348743 409.875165 467.599780 410.182418 467.845779 410.489670 468.086770 410.796923 468.322782 411.104176 468.553847 411.411429 468.779992 411.718681 469.001248 412.025934 469.217645 412.333187 469.429212 412.640440 469.635979 412.947692 469.837975 413.254945 470.035231 413.562198 470.227776 413.869451 470.415640 414.176703 470.598852 414.483956 470.777443 414.791209 470.951441 415.098462 471.120876 415.405714 471.285780 415.712967 471.446180 416.020220 471.602106 416.327473 471.753589 416.634725 471.900658 416.941978 472.043343 417.249231 472.181674 417.556484 472.315679 417.863736 472.445390 418.170989 472.570835 418.478242 472.692044 418.785495 472.809047 419.092747 472.921874 419.400000 473.030555 419.707253 473.135118 420.014505 473.235595 420.321758 473.332014 420.629011 473.424405 420.936264 473.512798 421.243516 473.597222 421.550769 473.677708 421.858022 473.754285 422.165275 473.826983 422.472527 473.895831 422.779780 473.960859 423.087033 474.022097 423.394286 474.079575 423.701538 474.133321 424.008791 474.183367 424.316044 474.229741 424.623297 474.272474 424.930549 474.311595 425.237802 474.347133 425.545055 474.379119 425.852308 474.407583 426.159560 474.432552 426.466813 474.454059 426.774066 474.472132 427.081319 474.486801 427.388571 474.498095 427.695824 474.506045 428.003077 474.510680 428.310330 474.512029 428.617582 474.510123 428.924835 474.504992 429.232088 474.496664 429.539341 474.485170 429.846593 474.470539 430.153846 474.452801 430.461099 474.431985 430.768352 474.408123 431.075604 474.381242 431.382857 474.351373 431.690110 474.318545 431.997363 474.282789 432.304615 474.244134 432.611868 474.202609 432.919121 474.158244 433.226374 474.111070 433.533626 474.061115 433.840879 474.008410 434.148132 473.952984 434.455385 473.894866 434.762637 473.834088 435.069890 473.770677 435.377143 473.704664 435.684396 473.636079 435.991648 473.564952 436.298901 473.491311 436.606154 473.415187 436.913407 473.336610 437.220659 473.255608 437.527912 473.172213 437.835165 473.086453 438.142418 472.998358 438.449670 472.907958 438.756923 472.815283 439.064176 472.720363 439.371429 472.623226 439.678681 472.523903 439.985934 472.422424 440.293187 472.318818 440.600440 472.213114 440.907692 472.105344 441.214945 471.995535 441.522198 471.883719 441.829451 471.769924 442.136703 471.654180 442.443956 471.536518 442.751209 471.416967 443.058462 471.295556 443.365714 471.172315 443.672967 471.047274 443.980220 470.920462 444.287473 470.791910 444.594725 470.661647 444.901978 470.529703 445.209231 470.396107 445.516484 470.260889 445.823736 470.124080 446.130989 469.985707 446.438242 469.845802 446.745495 469.704394 447.052747 469.561512 447.360000 469.417187 447.667253 469.271447 447.974505 469.124324 448.281758 468.975846 448.589011 468.826043 448.896264 468.674945 449.203516 468.522581 449.510769 468.368982 449.818022 468.214176 450.125275 468.058195 450.432527 467.901066 450.739780 467.742821 451.047033 467.583488 451.354286 467.423098 451.661538 467.261680 451.968791 467.099264 452.276044 466.935880 452.583297 466.771557 452.890549 466.606324 453.197802 466.440213 453.505055 466.273252 453.812308 466.105471 454.119560 465.936899 454.426813 465.767567 454.734066 465.597505 455.041319 465.426741 455.348571 465.255306 455.655824 465.083229 455.963077 464.910540 456.270330 464.737269 456.577582 464.563446 456.884835 464.389099 457.192088 464.214259 457.499341 464.038956 457.806593 463.863219 458.113846 463.687078 458.421099 463.510562 458.728352 463.333702 459.035604 463.156527 459.342857 462.979067 459.650110 462.801351 459.957363 462.623409 460.264615 462.445271 460.571868 462.266966 460.879121 462.088525 461.186374 461.909977 461.493626 461.731351 461.800879 461.552678 462.108132 461.373987 462.415385 461.195307 462.722637 461.016669 463.029890 460.838102 463.337143 460.659636 463.644396 460.481301 463.951648 460.303126 464.258901 460.125141 464.566154 459.947375 464.873407 459.769859 465.180659 459.592622 465.487912 459.415694 465.795165 459.239104 466.102418 459.062882 466.409670 458.887059 466.716923 458.711663 467.024176 458.536724 467.331429 458.362272 467.638681 458.188337 467.945934 458.014948 468.253187 457.842135 468.560440 457.669929 468.867692 457.498357 469.174945 457.327451 469.482198 457.157240 469.789451 456.987753 470.096703 456.819021 470.403956 456.651073 470.711209 456.483939 471.018462 456.317647 471.325714 456.152230 471.632967 455.987714 471.940220 455.824126 472.247473 455.661467 472.554725 455.499733 472.861978 455.338920 473.169231 455.179025 473.476484 455.020043 473.783736 454.861972 474.090989 454.704807 474.398242 454.548545 474.705495 454.393182 475.012747 454.238714 475.320000 454.085137 475.627253 453.932449 475.934505 453.780644 476.241758 453.629720 476.549011 453.479672 476.856264 453.330497 477.163516 453.182191 477.470769 453.034751 477.778022 452.888172 478.085275 452.742451 478.392527 452.597585 478.699780 452.453569 479.007033 452.310399 479.314286 452.168073 479.621538 452.026586 479.928791 451.885935 480.236044 451.746115 480.543297 451.607123 480.850549 451.468956 481.157802 451.331609 481.465055 451.195080 481.772308 451.059363 482.079560 450.924456 482.386813 450.790355 482.694066 450.657055 483.001319 450.524554 483.308571 450.392848 483.615824 450.261932 483.923077 450.131803 484.230330 450.002457 484.537582 449.873892 484.844835 449.746102 485.152088 449.619084 485.459341 449.492834 485.766593 449.367350 486.073846 449.242626 486.381099 449.118659 486.688352 448.995446 486.995604 448.872983 487.302857 448.751265 487.610110 448.630290 487.917363 448.510054 488.224615 448.390552 488.531868 448.271782 488.839121 448.153739 489.146374 448.036419 489.453626 447.919820 489.760879 447.803936 490.068132 447.688765 490.375385 447.574303 490.682637 447.460546 490.989890 447.347490 491.297143 447.235132 491.604396 447.123467 491.911648 447.012493 492.218901 446.902204 492.526154 446.792599 492.833407 446.683672 493.140659 446.575421 493.447912 446.467841 493.755165 446.360928 494.062418 446.254680 494.369670 446.149092 494.676923 446.044160 494.984176 445.939881 495.291429 445.836251 495.598681 445.733267 495.905934 445.630924 496.213187 445.529218 496.520440 445.428147 496.827692 445.327707 497.134945 445.227893 497.442198 445.128702 497.749451 445.030130 498.056703 444.932174 498.363956 444.834829 498.671209 444.738093 498.978462 444.641960 499.285714 444.546429 499.592967 444.451494 499.900220 444.357152 500.207473 444.263399 500.514725 444.170233 500.821978 444.077648 501.129231 443.985641 501.436484 443.894209 501.743736 443.803347 502.050989 443.713052 502.358242 443.623321 502.665495 443.534149 502.972747 443.445533 503.280000 443.357469 503.587253 443.269953 503.894505 443.182982 504.201758 443.096552 504.509011 443.010659 504.816264 442.925300 505.123516 442.840470 505.430769 442.756166 505.738022 442.672384 506.045275 442.589120 506.352527 442.506372 506.659780 442.424134 506.967033 442.342404 507.274286 442.261178 507.581538 442.180451 507.888791 442.100220 508.196044 442.020482 508.503297 441.941232 508.810549 441.862467 509.117802 441.784184 509.425055 441.706378 509.732308 441.629045 510.039560 441.552183 510.346813 441.475787 510.654066 441.399853 510.961319 441.324378 511.268571 441.249359 511.575824 441.174790 511.883077 441.100670 512.190330 441.026993 512.497582 440.953756 512.804835 440.880956 513.112088 440.808588 513.419341 440.736650 513.726593 440.665136 514.033846 440.594044 514.341099 440.523370 514.648352 440.453110 514.955604 440.383261 515.262857 440.313817 515.570110 440.244777 515.877363 440.176136 516.184615 440.107890 516.491868 440.040036 516.799121 439.972570 517.106374 439.905488 517.413626 439.838786 517.720879 439.772462 518.028132 439.706510 518.335385 439.640928 518.642637 439.575711 518.949890 439.510856 519.257143 439.446359 519.564396 439.382216 519.871648 439.318424 520.178901 439.254979 520.486154 439.191877 520.793407 439.129115 521.100659 439.066688 521.407912 439.004593 521.715165 438.942827 522.022418 438.881385 522.329670 438.820263 522.636923 438.759459 522.944176 438.698969 523.251429 438.638787 523.558681 438.578912 523.865934 438.519339 524.173187 438.460064 524.480440 438.401084 524.787692 438.342395 525.094945 438.283993 525.402198 438.225874 525.709451 438.168036 526.016703 438.110473 526.323956 438.053183 526.631209 437.996161 526.938462 437.939404 527.245714 437.882908 527.552967 437.826670 527.860220 437.770685 528.167473 437.714950 528.474725 437.659461 528.781978 437.604215 529.089231 437.549208 529.396484 437.494435 529.703736 437.439894 530.010989 437.385580 530.318242 437.331490 530.625495 437.277621 530.932747 437.223967 531.240000 437.170526 531.547253 437.117294 531.854505 437.064268 532.161758 437.011442 532.469011 436.958815 532.776264 436.906381 533.083516 436.854137 533.390769 436.802080 533.698022 436.750206 534.005275 436.698511 534.312527 436.646991 534.619780 436.595643 534.927033 436.544463 535.234286 436.493447 535.541538 436.442591 535.848791 436.391891 536.156044 436.341345 536.463297 436.290948 536.770549 436.240697 537.077802 436.190587 537.385055 436.140615 537.692308 436.090777 537.999560 436.041071 538.306813 435.991490 538.614066 435.942033 538.921319 435.892696 539.228571 435.843474 539.535824 435.794363 539.843077 435.745361 540.150330 435.696464 540.457582 435.647667 540.764835 435.598967 541.072088 435.550361 541.379341 435.501844 541.686593 435.453412 541.993846 435.405063 542.301099 435.356792 542.608352 435.308596 542.915604 435.260471 543.222857 435.212412 543.530110 435.164418 543.837363 435.116483 544.144615 435.068603 544.451868 435.020776 544.759121 434.972998 545.066374 434.925264 545.373626 434.877571 545.680879 434.829916 545.988132 434.782294 546.295385 434.734702 546.602637 434.687136 546.909890 434.639593 547.217143 434.592068 547.524396 434.544558 547.831648 434.497059 548.138901 434.449568 548.446154 434.402081 548.446154 459.585320" /></g></g><g class="titles"><text class="title plot_title" x="400.0" y="26">Landslide</text></g><g class="plot overlay" transform="translate(128, 46)"><g class="series serie-0 color-0"><g class="dots"><circle class="dot reactive tooltip-trigger" cx="10.753846153846155" cy="459.58532009" r="2.5" /><desc class="value">0</desc><desc class="x top">10.753846153846155</desc><desc class="y top">459.58532009</desc><desc class="x_label">2531</desc></g><g class="dots"><circle class="dot reactive tooltip-trigger" cx="87.56703296703296" cy="459.58532009" r="2.5" /><desc class="value">0</desc><desc class="x top">87.56703296703296</desc><desc class="y top">459.58532009</desc><desc class="x_label">2543</desc></g><g class="dots"><circle class="dot reactive tooltip-trigger" cx="164.3802197802198" cy="361.550566464" r="2.5" /><desc class="value">109</desc><desc class="x top">164.3802197802198</desc><desc class="y top">361.550566464</desc><desc class="x_label">2544</desc></g><g class="dots"><circle class="dot reactive tooltip-trigger" cx="241.1934065934066" cy="107.91936901" r="2.5" /><desc class="value">391</desc><desc class="x ">241.1934065934066</desc><desc class="y ">107.91936901</desc><desc class="x_label">2547</desc></g><g class="dots"><circle class="dot reactive tooltip-trigger" cx="318.0065934065934" cy="459.58532009" r="2.5" /><desc class="value">0</desc><desc class="x left top">318.0065934065934</desc><desc class="y left top">459.58532009</desc><desc class="x_label">2549</desc></g><g class="dots"><circle class="dot reactive tooltip-trigger" cx="394.8197802197802" cy="459.58532009" r="2.5" /><desc class="value">0</desc><desc class="x left top">394.8197802197802</desc><desc class="y left top">459.58532009</desc><desc class="x_label">2550</desc></g><g class="dots"><circle class="dot reactive tooltip-trigger" cx="471.63296703296703" cy="459.58532009" r="2.5" /><desc class="value">0</desc><desc class="x left top">471.63296703296703</desc><desc class="y left top">459.58532009</desc><desc class="x_label">2551</desc></g><g class="dots"><circle class="dot reactive tooltip-trigger" cx="548.4461538461538" cy="459.58532009" r="2.5" /><desc class="value">0</desc><desc class="x left top">548.4461538461538</desc><desc class="y left top">459.58532009</desc><desc class="x_label">2552</desc></g></g><g class="series serie-1 color-1"><g class="dots"><circle class="dot reactive tooltip-trigger" cx="10.753846153846155" cy="24.2750379352" r="2.5" /><desc class="value">242</desc><desc class="x ">10.753846153846155</desc><desc class="y ">24.2750379352</desc><desc class="x_label">2531</desc></g><g class="dots"><circle class="dot reactive tooltip-trigger" cx="87.56703296703296" cy="364.248770692" r="2.5" /><desc class="value">53</desc><desc class="x top">87.56703296703296</desc><desc class="y top">364.248770692</desc><desc class="x_label">2543</desc></g><g class="dots"><circle class="dot reactive tooltip-trigger" cx="164.3802197802198" cy="214.94813673" r="2.5" /><desc class="value">136</desc><desc class="x ">164.3802197802198</desc><desc class="y ">214.94813673</desc><desc class="x_label">2544</desc></g><g class="dots"><circle class="dot reactive tooltip-trigger" cx="241.1934065934066" cy="450.591305996" r="2.5" /><desc class="value">5</desc><desc class="x top">241.1934065934066</desc><desc class="y top">450.591305996</desc><desc class="x_label">2547</desc></g><g class="dots"><circle class="dot reactive tooltip-trigger" cx="318.0065934065934" cy="310.284686128" r="2.5" /><desc class="value">83</desc><desc class="x left top">318.0065934065934</desc><desc class="y left top">310.284686128</desc><desc class="x_label">2549</desc></g><g class="dots"><circle class="dot reactive tooltip-trigger" cx="394.8197802197802" cy="448.792503177" r="2.5" /><desc class="value">6</desc><desc class="x left top">394.8197802197802</desc><desc class="y left top">448.792503177</desc><desc class="x_label">2550</desc></g><g class="dots"><circle class="dot reactive tooltip-trigger" cx="471.63296703296703" cy="455.987714452" r="2.5" /><desc class="value">2</desc><desc class="x left top">471.63296703296703</desc><desc class="y left top">455.987714452</desc><desc class="x_label">2551</desc></g><g class="dots"><circle class="dot reactive tooltip-trigger" cx="548.4461538461538" cy="434.402080626" r="2.5" /><desc class="value">14</desc><desc class="x left top">548.4461538461538</desc><desc class="y left top">434.402080626</desc><desc class="x_label">2552</desc></g></g></g><g class="plot text-overlay" transform="translate(128, 46)"><g class="series serie-0 color-0" /><g class="series serie-1 color-1" /></g><g class="plot tooltip-overlay" transform="translate(128, 46)"><g class="tooltip" style="opacity: 0" transform="translate(0 0)"><rect class="tooltip-box" height="0" rx="0" ry="0" width="0" /><g class="text" /></g></g><g class="legends" transform="translate(10, 56)"><g class="legend reactive activate-serie" id="activate-serie-0"><rect class="color-0 reactive" height="12" width="12" x="0.0" y="1.0" /><text x="17.0" y="9.2">Injured</text></g></g><g class="legends" transform="translate(726, 56)"><g class="legend reactive activate-serie" id="activate-serie-1"><rect class="color-1 reactive" height="12" width="12" x="0.0" y="1.0" /><text x="17.0" y="9.2">Death</text></g></g></g></svg>